<?xml version="1.0" standalone="no"?>
<!DOCTYPE svg PUBLIC "-//W3C//DTD SVG 20010904//EN"
 "http://www.w3.org/TR/2001/REC-SVG-20010904/DTD/svg10.dtd">
<svg version="1.0" xmlns="http://www.w3.org/2000/svg"
 width="300.000000pt" height="176.000000pt" viewBox="0 0 300.000000 176.000000"
 preserveAspectRatio="xMidYMid meet">
<metadata>
Created by potrace 1.10, written by Peter Selinger 2001-2011
</metadata>
<g transform="translate(0.000000,176.000000) scale(0.100000,-0.100000)"
fill="#000000" stroke="none">
<path d="M1543 1621 c-12 -10 -20 -20 -18 -23 2 -2 -8 -36 -24 -76 -15 -40
-30 -70 -33 -67 -3 3 -5 -9 -6 -27 0 -18 -6 -34 -11 -36 -6 -2 -8 -8 -5 -13 3
-6 2 -15 -3 -22 -11 -13 -48 -110 -44 -115 1 -1 -5 -15 -12 -30 -8 -15 -20
-44 -27 -65 -10 -32 -9 -42 5 -63 11 -17 24 -24 38 -22 24 3 49 60 126 283 69
199 85 235 93 222 5 -7 5 2 2 18 -7 30 -29 54 -49 54 -5 0 -20 -8 -32 -18z
m52 -11 c4 -6 -16 -72 -44 -148 -28 -75 -71 -191 -95 -257 -34 -95 -48 -120
-62 -120 -27 0 -23 22 24 150 22 61 58 160 80 220 22 61 45 122 51 138 11 27
34 36 46 17z"/>
<path d="M1258 1562 c-14 -10 -44 -37 -67 -61 -29 -31 -46 -41 -58 -37 -14 6
-15 4 -6 -5 9 -9 4 -20 -23 -47 -52 -53 -47 -78 30 -155 36 -36 62 -68 58 -72
-4 -4 -2 -5 4 -3 7 2 21 -7 32 -20 26 -30 77 -45 92 -27 28 34 19 53 -61 134
-43 45 -74 81 -68 81 5 0 7 5 4 10 -3 6 2 10 11 10 10 0 15 3 12 6 -6 6 34 52
42 48 3 -1 11 4 18 12 7 8 11 14 8 14 -3 0 8 15 25 32 16 18 27 38 24 45 -2 7
1 13 8 13 13 0 -19 23 -44 32 -9 4 -28 -1 -41 -10z m51 -16 c17 -20 5 -38 -82
-124 l-74 -73 75 -72 c86 -84 98 -102 81 -123 -6 -8 -15 -14 -20 -14 -17 0
-199 191 -199 210 0 18 182 210 200 210 4 0 13 -6 19 -14z"/>
<path d="M1660 1565 c-7 -8 -18 -15 -25 -15 -20 0 -7 -36 25 -70 16 -17 26
-30 23 -30 -3 0 15 -16 39 -36 42 -35 58 -53 58 -65 0 -3 -34 -40 -75 -83 -41
-43 -75 -83 -75 -89 0 -7 9 -23 19 -36 21 -28 48 -23 86 15 14 14 30 22 35 19
6 -4 7 1 3 11 -4 12 -3 15 5 10 7 -4 12 -2 12 3 0 15 68 86 83 86 7 0 12 7 12
15 1 8 6 14 12 13 6 -1 9 11 7 30 -3 23 -22 50 -71 99 -55 55 -64 69 -54 82
14 17 1 28 -19 15 -13 -7 -13 -9 -1 -9 8 0 11 -3 8 -6 -10 -10 -38 17 -30 29
3 5 1 7 -4 4 -6 -4 -16 0 -23 8 -16 19 -34 19 -50 0z m122 -99 c52 -52 98
-101 101 -109 6 -16 -183 -212 -204 -212 -7 0 -17 8 -23 18 -9 15 2 30 75 102
l86 85 -83 82 c-46 45 -84 87 -84 93 0 12 20 35 30 35 4 0 50 -42 102 -94z"/>
<path d="M595 923 c-34 -9 -65 -35 -71 -60 l-7 -25 -17 26 c-9 15 -20 23 -23
19 -4 -3 -7 1 -7 11 0 9 -4 14 -10 11 -5 -3 -10 -2 -10 3 0 6 -27 9 -59 9 -33
0 -58 -4 -55 -9 3 -4 4 -8 2 -8 -56 -7 -84 -15 -95 -25 -9 -10 -13 -46 -13
-124 0 -101 2 -112 22 -131 12 -11 28 -20 35 -20 7 0 13 -5 13 -12 0 -9 3 -9
11 -1 6 6 28 9 51 5 28 -3 43 -1 49 9 6 10 9 10 9 2 0 -16 79 38 80 54 0 6 5
15 12 19 7 4 8 3 4 -4 -4 -7 -2 -12 3 -12 6 0 11 -6 11 -13 0 -15 36 -48 44
-40 3 4 6 2 6 -3 0 -15 185 -12 199 3 6 7 8 13 4 13 -4 0 -1 5 7 10 10 6 11
10 3 10 -7 0 -13 7 -13 15 0 14 -11 19 -37 16 -16 -2 -16 2 1 44 19 44 18 95
0 88 -8 -3 -14 -1 -14 5 0 11 30 21 48 15 6 -3 12 -11 12 -19 0 -8 7 -26 16
-39 9 -13 13 -28 10 -34 -3 -5 -2 -11 4 -13 6 -2 12 -13 14 -25 7 -33 36 -73
66 -88 15 -8 29 -12 32 -10 2 2 22 6 43 8 25 3 39 9 37 17 -2 7 6 31 16 54 11
22 23 51 26 64 4 12 11 22 15 22 4 0 8 6 8 13 0 7 8 36 18 65 15 42 16 53 6
66 -8 9 -19 16 -26 16 -14 0 -45 -33 -49 -52 -6 -30 -21 -53 -57 -89 l-37 -37
-16 31 c-37 80 -59 133 -57 140 1 5 -3 6 -8 3 -5 -4 -12 -2 -16 3 -3 7 -15 7
-30 1 -14 -5 -37 -5 -57 1 -34 9 -118 10 -153 2z m-160 -43 c50 -24 75 -65 75
-122 0 -54 -27 -100 -73 -121 -41 -20 -147 -23 -165 -5 -15 15 -17 238 -2 238
5 0 11 -49 12 -112 l3 -112 59 -3 c95 -4 146 38 146 121 0 47 -48 103 -96 112
-19 3 -34 10 -34 15 0 15 31 10 75 -11z m325 5 c25 -30 -5 -45 -86 -45 -43 0
-74 -4 -74 -10 0 -5 5 -10 11 -10 5 0 8 -4 4 -10 -10 -17 -36 2 -33 24 3 19
10 21 78 24 104 4 116 22 15 22 -59 0 -83 -4 -97 -17 -45 -41 -9 -73 82 -73
60 0 69 -3 75 -20 10 -33 -3 -40 -75 -40 -69 0 -100 -14 -100 -44 0 -30 33
-41 118 -41 59 0 86 -4 89 -12 4 -10 -18 -13 -88 -13 -81 0 -96 3 -116 22 -29
27 -29 55 -1 85 18 20 31 23 90 23 44 0 67 4 63 10 -3 6 -35 10 -71 10 -51 0
-68 4 -84 20 -27 27 -25 56 5 85 21 22 33 25 103 25 59 0 83 -4 92 -15z m77 3
c6 -7 28 -57 49 -110 22 -54 44 -98 50 -98 6 0 17 18 24 41 13 39 26 56 36 46
3 -3 -4 -28 -17 -56 -17 -40 -26 -51 -44 -51 -18 0 -28 14 -55 78 -18 42 -39
92 -47 111 -8 18 -16 31 -19 28 -3 -3 9 -38 26 -79 17 -40 38 -90 47 -110 8
-20 22 -39 31 -43 19 -7 49 2 55 18 3 7 24 59 47 117 42 107 55 129 66 117 9
-9 -94 -250 -113 -264 -25 -20 -57 -15 -80 10 -28 31 -107 222 -100 241 8 19
31 21 44 4z m-434 -29 c70 -19 101 -111 55 -164 -24 -26 -84 -50 -93 -36 -7
12 6 21 31 21 29 0 64 44 64 80 0 47 -30 73 -94 80 l-56 6 0 -99 c0 -63 -4
-96 -10 -92 -6 3 -10 52 -10 111 l0 104 38 0 c20 0 54 -5 75 -11z m10 -58 c20
-23 28 -51 16 -51 -6 0 -9 -6 -6 -12 4 -13 -71 -63 -80 -54 -6 5 -10 125 -5
131 10 10 63 0 75 -14z m294 -96 c2 -6 -21 -10 -52 -11 -58 -1 -79 -9 -51 -20
9 -3 13 -10 10 -16 -8 -12 -34 10 -34 29 0 7 9 17 20 21 29 11 105 9 107 -3z"/>
<path d="M1313 915 c-17 -7 -33 -12 -35 -11 -5 4 -63 -60 -63 -70 0 -5 -4 -24
-9 -42 -7 -28 -4 -37 23 -68 17 -19 29 -39 26 -45 -4 -5 1 -9 9 -9 9 0 16 -3
16 -8 0 -4 10 -13 22 -21 28 -17 90 -32 82 -20 -14 24 20 5 47 -26 35 -40 58
-44 84 -15 13 14 15 26 9 47 -14 49 -13 65 3 52 7 -7 11 -14 9 -16 -4 -4 15
-24 62 -63 6 -6 12 -9 12 -7 0 2 18 1 40 -3 22 -4 37 -3 34 1 -3 5 3 9 13 9
11 0 34 11 52 24 34 25 61 25 61 -1 0 -8 4 -12 9 -9 5 4 11 1 13 -6 6 -17 194
-20 208 -3 6 7 20 11 31 8 13 -4 16 -8 10 -13 -6 -3 24 -6 66 -6 l78 1 52 53
c51 52 53 54 44 92 -5 22 -6 42 -3 45 4 3 0 4 -8 1 -8 -3 -26 3 -39 13 l-24
19 22 7 c12 4 27 19 32 33 9 23 7 30 -15 48 -21 19 -35 22 -100 20 -64 -2 -81
-7 -104 -27 -15 -13 -24 -20 -20 -15 18 22 -24 37 -109 40 -73 3 -93 1 -119
-15 -28 -17 -33 -17 -44 -4 -17 20 -53 19 -73 -3 -13 -14 -17 -40 -18 -105 -1
-91 -11 -113 -45 -100 -30 11 -34 24 -33 98 1 106 0 117 -11 110 -5 -3 -10 -1
-10 4 0 17 -46 9 -49 -9 -2 -8 -2 -39 -2 -68 1 -34 -2 -51 -9 -47 -5 3 -10 14
-10 23 0 26 -71 98 -109 111 -44 14 -69 13 -108 -4z m126 -33 c63 -34 93 -137
55 -191 -16 -22 -16 -26 0 -53 14 -23 15 -32 6 -43 -19 -23 -33 -18 -58 20
-19 31 -20 36 -7 41 11 5 13 10 5 19 -7 8 -6 23 5 48 40 96 -81 171 -145 90
-29 -37 -26 -79 9 -114 16 -16 39 -29 50 -29 12 0 21 -4 21 -10 0 -23 -53 -9
-86 24 -40 40 -45 83 -15 132 41 67 140 68 182 1 19 -31 20 -57 4 -117 l-6
-25 15 25 c46 75 -14 180 -104 180 -62 0 -120 -52 -120 -110 0 -11 -4 -20 -10
-20 -18 0 -11 51 12 87 37 61 121 80 187 45z m158 -83 c1 -83 4 -95 23 -111
30 -24 63 -23 86 3 15 16 20 41 24 112 5 84 7 92 25 92 18 0 20 -8 23 -95 2
-81 -1 -100 -18 -128 -57 -93 -220 -51 -220 58 0 31 17 24 24 -10 15 -79 110
-108 167 -51 28 29 29 32 27 123 l-1 93 -6 -92 c-7 -100 -20 -127 -72 -138
-41 -9 -82 14 -96 55 -17 49 -17 193 0 187 8 -2 12 -33 14 -98z m433 86 c10
-12 10 -18 0 -30 -9 -11 -34 -15 -94 -15 -71 -1 -79 -2 -63 -14 10 -8 14 -17
8 -20 -14 -9 -41 22 -35 39 6 14 71 21 142 15 12 -1 22 3 22 9 0 7 -28 11 -73
11 -61 0 -77 -3 -92 -20 -15 -17 -16 -24 -7 -45 11 -23 17 -25 81 -25 72 0 97
-13 85 -44 -5 -13 -21 -16 -74 -16 -86 0 -119 -25 -90 -70 7 -12 30 -15 101
-15 65 0 93 -4 96 -12 4 -10 -19 -13 -91 -13 -83 0 -99 3 -116 20 -26 26 -25
64 2 90 17 16 35 20 85 20 35 0 63 4 63 10 0 6 -28 10 -65 10 -73 0 -105 20
-105 64 0 45 42 66 130 66 57 0 81 -4 90 -15z m248 -12 c4 -26 -12 -31 -98
-35 -47 -3 -55 -6 -55 -23 0 -17 8 -20 45 -23 66 -3 88 -10 110 -32 20 -20 29
-77 10 -65 -5 3 -10 14 -10 24 0 30 -25 42 -92 48 -71 6 -88 16 -88 48 0 34
21 45 89 46 80 2 91 19 11 19 -74 0 -94 -10 -109 -51 -6 -17 -15 -28 -21 -24
-16 10 13 68 41 83 14 7 52 11 94 10 64 -3 70 -5 73 -25z m-225 -83 c10 1 57
-36 57 -46 0 -4 8 -16 18 -27 9 -11 12 -18 6 -14 -6 3 -29 -3 -50 -13 -38 -20
-108 -25 -97 -7 3 4 11 6 17 4 7 -3 13 1 13 9 0 7 -4 11 -8 8 -5 -3 -1 9 9 26
16 28 16 32 0 59 -15 28 -15 30 0 33 10 2 19 -4 22 -15 3 -10 9 -18 13 -17z
m-643 10 c17 -17 19 -28 14 -58 -4 -20 -11 -39 -15 -40 -5 -2 -6 -8 -3 -14 4
-6 1 -8 -7 -6 -8 3 -13 10 -12 16 1 5 -7 8 -18 5 -50 -13 -81 71 -37 101 30
21 54 20 78 -4z m415 -40 c-3 -5 -11 -10 -16 -10 -6 0 -7 5 -4 10 3 6 11 10
16 10 6 0 7 -4 4 -10z m435 -29 c14 -26 13 -58 -2 -67 -7 -5 -45 -7 -85 -5
-47 1 -73 -1 -73 -8 0 -7 26 -11 65 -11 38 0 65 -4 65 -10 0 -7 -27 -10 -72
-8 -67 3 -73 5 -76 26 -4 24 -4 24 84 22 44 -1 64 3 73 14 24 29 6 46 -49 46
-27 0 -50 5 -50 10 0 6 25 10 55 10 43 0 56 -4 65 -19z m-283 -26 c2 -6 -21
-10 -52 -11 -58 -1 -79 -9 -51 -20 9 -3 14 -10 11 -15 -7 -11 -32 -1 -39 16
-3 8 1 20 8 27 15 15 120 18 123 3z"/>
<path d="M1450 642 c0 -5 7 -15 15 -22 8 -7 15 -8 15 -2 0 5 -7 15 -15 22 -8
7 -15 8 -15 2z"/>
<path d="M2364 921 c-16 -4 -21 -14 -20 -35 1 -16 -4 -34 -11 -41 -9 -10 -7
-17 10 -32 23 -20 89 -43 124 -43 23 0 33 -38 33 -121 0 -30 6 -55 18 -69 l18
-22 18 26 c9 15 15 33 13 39 -2 7 0 22 4 35 5 12 5 22 -1 22 -5 0 -5 12 0 30
10 33 10 36 10 50 0 5 17 12 38 15 20 3 45 10 54 15 11 6 18 5 21 -3 4 -9 6
-9 6 1 1 7 5 11 10 7 15 -9 24 34 11 50 -10 12 -10 18 1 31 11 14 10 19 -9 34
-25 21 -87 19 -103 -4 -10 -12 -129 -13 -154 0 -32 16 -67 22 -91 15z m86 -37
c24 -10 37 -21 33 -28 -3 -6 3 -3 14 7 24 21 59 22 67 2 3 -8 11 -15 18 -15
10 0 10 2 0 9 -9 5 0 13 30 24 74 29 131 18 73 -13 l-25 -14 31 -13 c18 -7 30
-16 26 -19 -11 -12 -119 -35 -136 -29 -23 7 -27 -9 -37 -127 -4 -48 -10 -86
-14 -83 -4 2 -10 44 -13 92 -6 96 -14 126 -29 117 -12 -7 -126 15 -133 26 -9
15 26 33 66 33 l40 0 -31 18 c-36 22 -62 25 -34 4 23 -17 14 -19 -21 -3 -62
28 6 39 75 12z"/>
<path d="M2630 870 c-26 -14 -30 -19 -15 -19 11 0 31 8 45 19 32 25 15 25 -30
0z"/>
<path d="M2520 860 c0 -5 4 -10 9 -10 6 0 13 5 16 10 3 6 -1 10 -9 10 -9 0
-16 -4 -16 -10z"/>
<path d="M2376 832 c-8 -13 105 -25 118 -12 15 15 26 12 20 -4 -3 -8 -1 -23 5
-33 9 -15 11 -12 9 17 l-3 35 -72 3 c-39 2 -74 -1 -77 -6z"/>
<path d="M2547 833 c-4 -3 -7 -20 -6 -37 0 -26 2 -28 8 -11 5 11 6 27 3 35 -5
12 -3 13 10 2 18 -14 131 -6 122 9 -6 10 -127 12 -137 2z"/>
<path d="M2528 725 c2 -19 6 -35 8 -35 2 0 4 16 4 35 0 19 -4 35 -8 35 -4 0
-6 -16 -4 -35z"/>
<path d="M339 502 c-19 -16 -22 -28 -22 -82 0 -42 -3 -58 -9 -49 -8 12 -9 11
-6 0 5 -17 44 -47 73 -55 16 -5 25 1 38 23 19 32 22 51 8 51 -5 0 -11 -10 -13
-21 -4 -30 -33 -47 -55 -33 -26 16 -26 142 0 158 23 15 51 -3 54 -35 l3 -24
-12 23 c-6 13 -19 21 -27 20 -24 -5 -23 -121 1 -126 10 -2 19 6 24 20 15 45
13 53 -7 28 -12 -14 -18 -19 -14 -12 3 6 2 12 -2 12 -11 0 -11 45 0 56 4 4 7
0 7 -9 0 -22 24 -22 41 0 16 18 15 20 -13 51 -26 27 -39 28 -69 4z"/>
<path d="M921 504 c-18 -13 -21 -25 -21 -87 1 -84 14 -110 54 -103 14 2 28 1
31 -4 10 -16 32 0 30 22 -2 21 -10 29 -50 44 -18 7 -17 8 8 12 16 2 31 10 34
18 8 21 -15 43 -39 36 -14 -3 -19 -1 -14 6 4 7 16 12 26 12 24 0 47 38 28 45
-35 12 -68 12 -87 -1z m79 -17 c0 -9 -10 -12 -30 -9 -27 4 -30 1 -30 -22 0
-22 4 -26 30 -26 17 0 30 -4 30 -10 0 -5 -13 -10 -30 -10 -27 0 -30 -3 -30
-31 0 -29 2 -31 30 -27 20 3 30 0 30 -9 0 -9 -13 -13 -40 -13 l-40 0 0 85 0
85 40 0 c27 0 40 -4 40 -13z"/>
<path d="M1273 509 c-30 -11 -44 -42 -40 -84 2 -19 0 -35 -4 -35 -5 0 -4 -12
2 -27 6 -16 10 -30 9 -32 -1 -5 14 -8 68 -14 18 -3 30 -2 28 1 -3 2 2 18 11
35 15 29 14 32 -6 48 -25 20 -27 45 -5 57 14 8 14 12 3 30 -16 25 -37 32 -66
21z m51 -25 c3 -8 -1 -22 -9 -30 -8 -9 -15 -22 -15 -30 0 -8 -7 -14 -15 -14
-10 0 -15 -10 -15 -31 0 -26 3 -30 23 -27 16 2 21 9 20 25 -2 16 2 21 12 17
17 -7 6 -43 -18 -58 -33 -21 -52 5 -54 75 -1 35 3 69 9 76 15 18 55 16 62 -3z"/>
<path d="M1270 455 c0 -30 15 -33 30 -6 14 27 13 31 -10 31 -15 0 -20 -7 -20
-25z"/>
<path d="M1590 489 c-23 -23 -27 -35 -21 -52 5 -12 7 -31 5 -42 -6 -34 5 -63
27 -70 17 -6 19 -9 8 -16 -23 -14 -4 -10 29 6 30 15 66 68 54 79 -10 10 -48 6
-60 -6 -9 -9 -12 -4 -12 24 0 42 15 58 23 26 5 -18 8 -19 21 -8 19 15 21 54 4
67 -32 25 -50 23 -78 -8z m68 -1 c14 -14 16 -48 3 -48 -5 0 -11 9 -14 21 -4
13 -12 20 -24 17 -33 -6 -30 -128 3 -128 9 0 18 9 21 20 7 27 25 26 21 -1 -4
-30 -33 -47 -55 -33 -22 14 -31 127 -12 150 14 17 41 18 57 2z"/>
<path d="M1781 491 c-21 -30 -22 -113 -2 -149 11 -20 19 -23 59 -20 l47 3 1
73 c1 83 -11 108 -56 114 -25 4 -35 0 -49 -21z m77 -3 c18 -18 16 -133 -3
-148 -21 -17 -61 -4 -69 22 -9 36 -7 97 4 119 12 21 50 25 68 7z"/>
<path d="M1804 466 c-3 -7 -4 -35 -2 -62 3 -41 6 -49 23 -49 18 0 20 8 23 63
3 57 1 62 -18 62 -11 0 -23 -6 -26 -14z m28 -58 c-7 -7 -12 -8 -12 -2 0 14 12
26 19 19 2 -3 -1 -11 -7 -17z"/>
<path d="M2005 512 c-38 -8 -45 -22 -45 -97 0 -54 4 -76 16 -86 14 -11 18 -10
29 5 8 10 12 26 10 36 -2 9 2 17 8 17 35 -1 47 5 47 21 0 23 -19 42 -35 36 -7
-3 -16 -1 -20 5 -4 7 5 11 24 11 24 0 31 4 31 19 0 29 -25 42 -65 33z m55 -25
c0 -9 -10 -12 -30 -9 -25 4 -30 1 -30 -17 0 -33 3 -36 33 -33 19 2 27 -1 27
-13 0 -12 -7 -14 -30 -10 -29 5 -30 4 -30 -29 0 -19 -4 -38 -10 -41 -6 -4 -10
25 -10 79 l0 86 40 0 c27 0 40 -4 40 -13z"/>
<path d="M2368 506 c-16 -8 -22 -19 -20 -35 3 -16 0 -21 -8 -16 -9 6 -9 2 -1
-13 6 -12 11 -25 10 -29 -1 -4 -1 -24 0 -44 1 -27 7 -38 24 -45 35 -16 81 -3
85 24 3 19 -1 22 -28 22 -21 0 -30 4 -27 13 2 6 13 11 24 9 11 -2 23 3 26 10
3 10 -5 12 -34 10 -36 -4 -39 -7 -39 -34 0 -29 2 -30 35 -26 25 3 35 0 35 -10
0 -9 -12 -12 -42 -10 l-43 3 0 80 0 80 44 3 c32 2 42 0 39 -10 -3 -8 -17 -12
-36 -10 -29 3 -32 1 -32 -25 0 -27 2 -28 41 -25 43 4 46 10 9 17 -30 6 -38 15
-14 15 24 0 62 26 52 35 -15 15 -77 22 -100 11z"/>
<path d="M2593 512 c-17 -2 -37 -9 -43 -17 -10 -12 -21 -169 -11 -159 2 2 10
-1 17 -7 35 -29 119 -5 94 27 -6 6 -7 13 -5 16 3 3 -5 5 -17 4 -36 -3 -46 8
-13 14 27 5 30 9 27 38 -1 18 2 41 7 51 12 22 -12 37 -56 33z m47 -25 c0 -9
-10 -12 -30 -9 -27 4 -30 1 -30 -22 0 -22 4 -26 30 -26 17 0 30 -4 30 -10 0
-5 -13 -10 -30 -10 -27 0 -30 -3 -30 -31 0 -28 3 -30 30 -27 16 2 30 -1 32 -7
2 -5 -16 -11 -39 -13 l-43 -3 0 85 0 86 40 0 c27 0 40 -4 40 -13z m-10 -35 c0
-4 -9 -8 -19 -8 -11 0 -17 4 -15 8 3 4 12 8 20 8 8 0 14 -4 14 -8z"/>
<path d="M522 493 c-5 -10 -12 -44 -14 -76 -4 -54 -3 -60 24 -82 31 -27 53
-31 63 -15 4 6 11 8 16 4 5 -3 9 -2 8 3 -1 4 1 15 4 23 4 8 8 40 9 70 3 46 0
58 -19 73 -11 9 -35 17 -52 17 -19 0 -34 -7 -39 -17z m77 -7 c19 -23 10 -136
-11 -150 -34 -21 -53 4 -56 73 -3 66 7 91 38 91 10 0 23 -6 29 -14z"/>
<path d="M544 466 c-3 -7 -4 -35 -2 -62 2 -38 7 -50 22 -52 10 -2 22 2 27 10
10 15 12 79 3 102 -8 20 -43 21 -50 2z m34 -38 c1 -18 -3 -40 -9 -48 -9 -13
-10 -12 -5 3 3 9 2 17 -2 17 -4 0 -7 14 -7 30 0 41 20 38 23 -2z"/>
<path d="M713 494 c-3 -9 -6 -47 -6 -84 -1 -70 14 -106 39 -96 7 3 14 1 16 -4
2 -4 16 2 33 16 27 22 30 29 31 85 1 77 -14 99 -69 99 -25 0 -40 -5 -44 -16z
m81 -10 c11 -10 16 -34 16 -68 0 -60 -22 -90 -62 -84 -22 3 -23 8 -26 86 l-3
82 30 0 c16 0 37 -7 45 -16z"/>
<path d="M740 416 c0 -67 7 -77 38 -57 9 5 12 25 10 62 -3 47 -6 54 -25 57
-22 3 -23 0 -23 -62z m25 34 c-3 -5 -2 -10 2 -10 5 0 7 -17 4 -37 l-5 -38 -6
40 c-6 39 -4 55 6 55 3 0 2 -4 -1 -10z"/>
<path d="M2164 499 c-10 -18 -12 -140 -2 -161 17 -37 48 -15 48 33 0 11 3 18
8 16 13 -8 52 12 52 27 0 8 -13 19 -30 25 -27 9 -42 23 -22 20 4 -1 15 -1 25
0 30 2 8 21 -24 21 -26 0 -29 -3 -29 -30 0 -28 3 -30 32 -28 20 2 33 -2 36
-11 4 -11 -3 -13 -32 -8 l-36 6 0 -40 c0 -21 -4 -39 -10 -39 -6 0 -9 34 -7 83
l2 82 39 3 c24 2 42 -2 48 -10 8 -10 9 -10 5 2 -5 19 -92 27 -103 9z"/>
<path d="M143 410 c-13 -5 -23 -13 -23 -18 0 -32 71 -43 106 -17 19 15 19 15
0 30 -22 17 -50 18 -83 5z m77 -20 c0 -5 -18 -10 -40 -10 -22 0 -40 5 -40 10
0 6 18 10 40 10 22 0 40 -4 40 -10z"/>
<path d="M2749 404 c-5 -6 -7 -18 -3 -27 6 -18 70 -27 84 -13 8 8 14 6 21 -4
8 -11 9 -9 4 10 -4 14 -11 29 -17 35 -13 14 -77 13 -89 -1z m86 -14 c4 -6 -12
-10 -39 -10 -25 0 -46 5 -46 10 0 6 18 10 39 10 22 0 43 -4 46 -10z"/>
<path d="M228 238 c-22 -22 -22 -30 0 -57 l17 -22 1238 0 c955 1 1242 4 1257
13 11 7 19 22 18 35 -3 27 -22 25 -26 -3 -3 -19 -27 -19 -1247 -19 l-1245 0 0
23 0 22 1249 0 c823 0 1252 3 1256 10 8 13 55 13 -1304 15 -1143 1 -1195 1
-1213 -17z"/>
</g>
</svg>
