<?xml version="1.0" standalone="no"?>
<!DOCTYPE svg PUBLIC "-//W3C//DTD SVG 20010904//EN"
 "http://www.w3.org/TR/2001/REC-SVG-20010904/DTD/svg10.dtd">
<svg version="1.0" xmlns="http://www.w3.org/2000/svg"
 width="1017.000000pt" height="597.000000pt" viewBox="0 0 1017.000000 597.000000"
 preserveAspectRatio="xMidYMid meet">
<metadata>
Created by potrace 1.10, written by Peter Selinger 2001-2011
</metadata>
<g transform="translate(0.000000,597.000000) scale(0.100000,-0.100000)"
fill="#000000" stroke="none">
<path d="M5231 5490 c-44 -45 -51 -49 -60 -33 -8 14 -9 7 -5 -28 6 -41 4 -47
-20 -62 -21 -14 -24 -22 -19 -49 4 -21 2 -34 -9 -42 -8 -6 -23 -36 -33 -66 -9
-30 -29 -79 -42 -108 -13 -29 -21 -61 -18 -72 3 -11 0 -22 -8 -27 -8 -4 -17
-30 -20 -56 -4 -27 -15 -61 -26 -75 -38 -55 -53 -93 -41 -106 16 -21 1 -48
-23 -40 -19 6 -19 3 -13 -44 5 -37 3 -52 -8 -61 -23 -20 -56 -89 -50 -106 10
-25 -4 -49 -20 -36 -19 16 -27 2 -20 -36 3 -18 2 -39 -3 -46 -6 -6 -16 -33
-23 -60 -7 -26 -17 -50 -21 -53 -19 -12 -49 -90 -49 -129 0 -23 -7 -50 -15
-61 -8 -10 -15 -29 -15 -41 0 -12 -10 -29 -21 -37 -18 -12 -21 -22 -16 -50 4
-24 1 -39 -9 -47 -8 -6 -14 -23 -14 -38 0 -15 -8 -38 -17 -51 -28 -40 -23
-116 11 -167 16 -25 37 -43 47 -43 10 0 22 -6 26 -14 4 -7 22 -17 40 -20 26
-6 34 -4 43 14 7 14 17 19 29 15 19 -6 66 48 56 65 -3 6 0 10 7 10 13 0 68
121 68 151 0 8 7 23 15 33 8 11 15 30 15 43 0 25 27 89 48 115 8 10 12 26 9
38 -4 17 -2 19 19 14 15 -4 24 -2 24 5 0 6 -5 11 -11 11 -7 0 -9 11 -5 30 3
17 9 43 12 59 3 17 15 38 25 47 10 9 19 29 19 44 0 15 7 33 15 40 8 7 15 20
15 29 0 10 18 71 40 137 22 65 52 152 65 192 13 41 29 80 35 87 6 7 8 20 4 29
-4 11 -1 16 10 16 9 0 16 8 16 18 0 10 7 27 15 38 8 10 15 31 15 45 0 39 20
92 41 111 14 11 18 24 14 40 -4 16 1 33 14 49 11 14 25 48 32 75 6 27 19 57
27 67 13 14 13 21 2 41 -10 20 -10 28 4 47 9 13 16 35 16 50 0 33 -19 89 -31
89 -5 0 -18 9 -28 19 -30 30 -56 41 -95 41 -30 0 -44 -8 -85 -50z m127 -6 c13
-4 30 -22 40 -43 19 -39 17 -48 -26 -154 -7 -16 -12 -34 -12 -40 0 -7 -7 -21
-15 -31 -8 -11 -15 -29 -15 -41 0 -12 -5 -26 -11 -32 -6 -6 -14 -26 -19 -44
-5 -19 -18 -59 -30 -89 -12 -30 -32 -86 -45 -125 -36 -104 -49 -139 -59 -154
-5 -7 -12 -27 -17 -45 -4 -17 -24 -76 -44 -131 -20 -55 -39 -109 -42 -120 -3
-11 -12 -29 -20 -40 -7 -11 -13 -29 -13 -41 0 -12 -6 -35 -14 -51 -26 -51 -46
-103 -46 -117 0 -8 -7 -27 -15 -42 -8 -16 -15 -36 -15 -44 0 -9 -4 -20 -9 -25
-5 -6 -14 -26 -19 -45 -6 -19 -20 -60 -32 -90 -12 -30 -24 -66 -27 -80 -3 -14
-12 -34 -19 -45 -8 -11 -14 -27 -14 -36 0 -28 -35 -97 -60 -119 -37 -32 -73
-26 -104 19 -33 47 -29 76 27 186 6 11 14 33 18 50 8 34 26 85 45 130 7 17 20
50 29 75 9 25 23 60 31 78 8 18 14 39 14 46 0 8 7 27 15 42 8 16 15 38 15 49
0 11 7 29 15 39 8 11 15 29 15 40 0 12 7 30 15 40 8 11 15 30 15 42 0 13 4 25
9 29 5 3 12 19 16 36 4 17 13 42 21 57 8 15 14 37 14 49 0 12 4 24 9 27 4 3
18 36 30 73 13 37 29 82 37 100 8 17 14 35 14 41 0 5 7 23 15 38 8 16 15 39
15 50 0 12 7 27 15 34 8 7 15 24 15 39 0 14 7 35 15 45 8 11 15 29 15 41 0 12
5 26 11 32 6 6 14 26 19 44 11 46 30 98 46 131 8 14 14 35 14 46 0 11 7 25 15
32 8 7 15 18 15 25 0 20 46 30 88 19z"/>
<path d="M5482 5329 c1 -13 8 -23 13 -21 15 3 12 35 -3 40 -9 3 -13 -3 -10
-19z"/>
<path d="M4271 5307 c-24 -13 -47 -31 -53 -40 -5 -9 -19 -17 -32 -17 -16 0
-32 -13 -51 -40 -16 -22 -36 -40 -46 -40 -21 0 -24 -11 -8 -27 15 -15 1 -37
-14 -25 -18 15 -57 -4 -57 -28 0 -11 -7 -20 -15 -20 -8 0 -17 -11 -21 -24 -3
-13 -23 -36 -45 -52 -21 -16 -41 -37 -45 -47 -4 -12 -12 -16 -24 -12 -22 7
-37 -12 -21 -28 14 -14 14 -37 1 -37 -5 0 -10 7 -10 15 0 19 -5 19 -36 -2 -19
-12 -24 -22 -19 -40 4 -18 1 -23 -15 -23 -12 0 -25 -10 -32 -25 -6 -14 -17
-25 -24 -25 -16 0 -65 -72 -87 -127 -13 -34 -15 -53 -7 -92 15 -79 33 -111 99
-181 34 -36 64 -77 68 -92 5 -27 16 -32 53 -29 9 1 27 -10 39 -23 19 -20 21
-28 12 -40 -13 -15 4 -26 41 -26 17 0 19 -5 14 -25 -5 -21 -3 -24 16 -22 17 1
24 -4 26 -20 2 -13 9 -23 17 -23 7 0 18 -13 24 -30 5 -16 14 -30 18 -31 4 0
18 -2 30 -3 31 -4 64 -36 58 -56 -6 -19 10 -36 40 -42 12 -2 20 -11 20 -23 0
-12 8 -21 20 -23 11 -2 29 -12 40 -22 26 -23 107 -44 136 -35 46 12 99 40 99
51 0 7 7 14 15 18 8 3 15 12 15 20 0 8 8 19 18 25 16 9 16 11 -3 25 -20 15
-20 16 -2 48 15 26 16 34 5 43 -37 29 -146 164 -152 188 -3 15 -13 27 -22 27
-8 0 -17 7 -20 15 -4 8 -11 15 -17 15 -6 0 -17 7 -26 15 -83 75 -143 125 -151
125 -5 0 -10 14 -10 30 0 30 -24 43 -32 18 -2 -6 -9 -8 -16 -4 -9 5 -9 12 1
27 10 17 9 22 -5 30 -13 7 -17 23 -17 64 1 54 2 55 30 55 26 0 29 3 27 28 -3
23 0 27 19 24 14 -2 23 4 28 17 3 11 18 30 33 42 15 11 29 30 33 42 4 17 13
22 40 22 35 0 40 9 24 48 -6 14 -2 17 24 17 29 0 31 3 29 28 -3 22 1 27 23 30
15 2 32 14 42 32 9 15 33 47 52 70 19 23 35 48 35 56 0 8 5 14 10 14 6 0 10
18 10 41 0 23 7 47 15 56 17 16 12 33 -11 33 -8 0 -14 7 -14 15 0 8 -9 15 -19
15 -10 0 -21 6 -24 13 -8 21 -71 47 -114 47 -21 0 -58 -10 -82 -23z m145 -57
c38 -38 44 -50 44 -85 0 -35 -16 -53 -282 -319 l-283 -281 282 -280 c264 -262
283 -282 283 -316 0 -26 -9 -44 -34 -72 -37 -41 -75 -48 -111 -22 -11 8 -158
153 -327 322 l-308 307 0 65 0 65 318 318 c311 311 318 317 358 318 27 0 47
-6 60 -20z m-76 -1008 c0 -13 -12 -22 -22 -16 -10 6 -1 24 13 24 5 0 9 -4 9
-8z"/>
<path d="M5633 5315 c-17 -7 -39 -25 -48 -39 -9 -14 -26 -28 -36 -31 -29 -9
-55 -53 -40 -68 6 -6 11 -23 11 -38 0 -17 9 -35 25 -47 14 -11 25 -29 25 -40
0 -11 11 -29 25 -40 14 -11 25 -25 25 -31 0 -5 9 -15 20 -21 11 -6 20 -17 20
-25 0 -8 9 -15 19 -15 17 0 18 -4 11 -29 -8 -29 -7 -29 17 -20 32 12 30 12 36
-12 3 -11 15 -23 26 -26 12 -3 21 -11 21 -18 0 -7 16 -23 35 -36 19 -13 35
-27 35 -30 0 -3 13 -20 29 -37 19 -22 34 -30 45 -26 14 5 16 2 10 -21 -6 -25
-5 -27 16 -20 21 7 22 5 18 -25 -4 -26 -1 -34 14 -38 22 -5 23 -25 2 -43 -9
-7 -20 -23 -25 -35 -4 -13 -18 -24 -31 -26 -17 -2 -23 -10 -23 -28 0 -19 -6
-26 -25 -30 -14 -3 -26 -14 -30 -26 -3 -12 -34 -45 -70 -73 -36 -29 -69 -59
-73 -67 -4 -8 -17 -14 -27 -14 -16 0 -20 -7 -20 -30 0 -27 -3 -30 -30 -30 -27
0 -30 -3 -24 -24 4 -18 0 -27 -16 -36 -12 -6 -28 -27 -36 -46 -8 -19 -19 -34
-24 -34 -19 0 -30 -39 -23 -86 5 -37 12 -50 34 -63 16 -9 29 -23 29 -32 0 -9
8 -20 18 -23 9 -3 28 -13 42 -21 30 -17 93 -11 130 14 14 9 38 21 54 27 33 11
47 34 22 34 -36 0 -12 17 36 26 50 9 53 10 54 42 2 42 7 46 33 32 31 -16 44
-3 36 36 -3 21 -2 34 5 34 5 0 10 -4 10 -10 0 -5 7 -10 15 -10 8 0 16 5 16 10
1 6 3 15 4 20 1 6 3 14 4 19 0 5 13 12 27 15 19 5 24 11 19 25 -3 10 1 24 10
31 13 11 18 10 29 -5 16 -23 31 -4 22 29 -7 27 13 49 40 44 13 -2 21 6 27 30
6 20 16 32 27 32 10 0 25 11 34 25 9 14 23 25 31 25 20 0 30 21 14 31 -11 6
-11 11 -2 20 10 10 14 9 18 -4 12 -30 34 -8 28 29 -4 25 -2 35 10 40 9 3 25
20 36 37 11 18 26 40 33 49 10 14 9 20 -4 35 -8 10 -18 30 -22 46 -4 15 -16
38 -27 50 -65 71 -153 157 -161 157 -16 0 -8 30 10 31 10 0 12 3 5 6 -7 2 -13
12 -13 20 0 12 -7 14 -34 9 -32 -6 -35 -5 -47 29 -7 19 -18 35 -24 35 -17 1
-75 59 -75 76 0 33 -21 56 -45 50 -20 -5 -24 -2 -27 21 -2 22 -8 28 -28 28
-17 0 -26 7 -30 25 -4 16 -14 26 -29 28 -18 3 -22 9 -19 34 2 19 -2 33 -9 35
-8 3 -13 -4 -13 -19 0 -22 -2 -21 -26 10 -56 70 -141 98 -211 67z m406 -352
c169 -170 315 -323 324 -342 19 -38 22 -77 7 -86 -5 -3 -10 -12 -10 -19 0 -17
-604 -626 -637 -643 -39 -20 -59 -16 -97 21 -30 28 -36 40 -36 76 0 42 1 43
270 311 149 148 275 269 280 269 21 0 9 31 -22 57 -17 16 -143 139 -280 274
-246 245 -248 247 -248 289 0 57 44 100 102 100 38 0 47 -8 347 -307z"/>
<path d="M5940 5200 c0 -5 9 -10 21 -10 11 0 17 5 14 10 -3 6 -13 10 -21 10
-8 0 -14 -4 -14 -10z"/>
<path d="M6115 5019 c-4 -6 -5 -13 -2 -16 7 -7 27 6 27 18 0 12 -17 12 -25 -2z"/>
<path d="M4940 4921 c0 -17 12 -41 21 -41 5 0 9 11 9 25 0 16 -6 25 -15 25 -8
0 -15 -4 -15 -9z"/>
<path d="M6292 4829 c2 -6 8 -10 13 -10 5 0 11 4 13 10 2 6 -4 11 -13 11 -9 0
-15 -5 -13 -11z"/>
<path d="M6352 4781 c4 -13 18 -16 19 -4 0 4 -5 9 -11 12 -7 2 -11 -2 -8 -8z"/>
<path d="M3820 4211 c0 -13 29 -35 37 -28 7 8 -15 37 -28 37 -5 0 -9 -4 -9 -9z"/>
<path d="M2021 3135 c-46 -8 -78 -20 -83 -29 -5 -9 -19 -16 -32 -16 -15 0 -27
-9 -35 -26 -9 -20 -15 -24 -25 -15 -14 12 -33 -4 -55 -46 -7 -13 -21 -23 -33
-23 -21 0 -21 -1 -3 -13 10 -8 15 -19 11 -25 -10 -17 -33 -15 -40 4 -6 15 -8
15 -26 -1 -18 -16 -20 -16 -26 -2 -3 9 -3 20 0 25 3 5 -15 19 -39 32 -25 13
-47 32 -51 42 -4 13 -13 18 -27 16 -29 -3 -47 9 -40 27 3 8 0 15 -6 15 -7 0
-14 -7 -17 -15 -8 -21 -21 -19 -29 4 -6 19 -23 24 -136 37 -69 8 -156 -26
-172 -68 -8 -22 -55 -24 -63 -3 -9 24 -37 19 -29 -5 7 -22 -5 -26 -22 -9 -15
15 -47 3 -40 -15 5 -11 -1 -13 -27 -9 -20 3 -36 1 -40 -6 -10 -15 -43 -14 -49
2 -5 16 -103 -80 -116 -116 -15 -38 -15 -658 0 -712 21 -82 30 -97 56 -91 16
5 23 2 23 -7 0 -8 11 -19 24 -25 14 -6 35 -29 48 -52 25 -43 51 -49 56 -12 5
31 21 27 33 -8 11 -31 29 -41 29 -16 0 21 34 25 145 20 127 -7 113 -7 164 6
24 6 51 8 61 5 11 -3 29 4 46 18 16 13 47 32 68 42 21 10 62 36 90 57 28 21
53 38 57 38 4 0 9 8 12 19 2 10 17 21 33 24 34 6 44 2 44 -21 0 -20 81 -112
98 -112 6 0 20 -13 31 -29 31 -43 96 -51 356 -46 184 3 225 1 252 -12 33 -15
69 -11 58 7 -3 5 -15 10 -26 10 -10 0 -19 4 -19 9 0 18 16 20 44 6 26 -14 56
-11 56 5 0 5 -6 11 -12 13 -17 7 7 25 45 34 23 5 25 8 15 20 -10 12 -8 18 11
32 28 21 22 66 -8 56 -12 -3 -20 4 -30 28 -8 17 -13 37 -13 42 1 16 -66 55
-83 48 -12 -4 -13 -8 -4 -19 19 -23 3 -27 -26 -8 -23 15 -26 22 -20 53 8 45
12 51 32 51 13 0 13 3 3 15 -14 17 -6 45 13 45 9 0 14 12 15 30 0 17 10 42 21
56 24 31 27 72 6 80 -40 16 -24 140 21 161 41 19 63 -9 29 -37 -21 -17 -19
-28 6 -32 14 -2 25 -15 34 -40 7 -21 23 -46 35 -56 15 -12 22 -30 24 -60 1
-23 7 -47 14 -54 7 -7 12 -20 12 -29 0 -9 10 -24 23 -33 21 -15 21 -16 5 -29
-23 -19 -23 -30 1 -22 22 7 37 -21 21 -40 -8 -9 -4 -17 15 -29 17 -11 25 -25
25 -46 0 -17 8 -34 20 -43 10 -7 23 -22 27 -33 4 -10 24 -40 42 -66 27 -38 41
-48 63 -48 18 0 28 -5 28 -15 0 -8 7 -15 15 -15 9 0 18 -7 21 -15 4 -10 13
-13 25 -10 12 4 21 1 25 -9 8 -20 34 -21 34 -1 0 8 9 15 20 15 13 0 18 -5 14
-15 -4 -8 -1 -15 5 -15 6 0 11 7 11 15 0 17 23 20 50 5 13 -7 19 -6 24 5 3 8
14 15 25 15 10 0 21 9 24 20 3 11 13 20 22 20 18 0 75 52 75 68 0 5 7 16 17
23 9 8 26 37 38 64 13 28 41 89 64 138 22 48 41 95 41 105 0 9 7 26 15 36 8
11 15 30 15 43 0 12 9 27 19 33 13 6 17 17 14 30 -3 12 1 28 10 38 9 10 19 37
23 60 4 23 10 42 14 42 17 0 80 187 80 237 0 21 -12 47 -40 81 -46 59 -71 70
-105 48 -13 -9 -31 -16 -38 -16 -8 0 -17 -9 -20 -19 -2 -11 -15 -21 -28 -23
-17 -2 -23 -8 -21 -22 2 -10 -6 -25 -18 -33 -14 -10 -19 -21 -15 -34 5 -13 2
-19 -10 -19 -21 0 -30 -27 -15 -44 9 -12 7 -17 -7 -24 -10 -6 -29 -41 -43 -78
-19 -50 -32 -72 -54 -83 -44 -25 -86 -61 -86 -76 0 -21 -19 -28 -37 -13 -14
11 -16 10 -11 -15 4 -21 -1 -34 -25 -57 -37 -36 -49 -38 -41 -6 4 16 1 25 -11
30 -13 4 -15 13 -10 37 6 25 4 30 -10 27 -11 -2 -22 12 -37 47 -11 28 -33 77
-48 110 -15 33 -33 80 -40 105 -7 25 -21 53 -31 63 -10 10 -19 27 -19 37 0 11
-6 20 -14 20 -23 0 -46 40 -39 68 5 22 4 23 -14 11 -18 -10 -25 -9 -48 9 -38
30 -92 29 -135 -3 -42 -31 -47 -31 -101 -1 -56 30 -93 35 -314 40 -127 3 -202
1 -254 -9z m-737 -94 c3 -4 31 -11 63 -15 74 -8 172 -57 234 -117 54 -52 119
-149 119 -177 0 -10 7 -27 15 -38 11 -14 14 -48 14 -129 0 -81 -3 -115 -14
-129 -8 -11 -15 -28 -15 -38 0 -42 -112 -186 -176 -225 -107 -67 -184 -83
-387 -83 -196 0 -220 6 -258 69 -17 28 -18 57 -19 388 0 197 -1 363 0 369 0
16 29 26 51 19 18 -6 19 -24 19 -355 0 -358 4 -399 39 -401 9 -1 104 -1 212 0
189 1 198 2 240 26 24 14 51 28 59 32 8 4 21 12 27 19 7 7 16 14 20 16 14 6
78 92 95 128 45 96 43 239 -5 340 -25 54 -118 149 -167 171 -91 42 -114 49
-155 49 -59 0 -75 8 -75 37 0 36 49 70 64 44z m1248 -10 c72 -25 90 -99 36
-153 l-33 -32 -251 3 c-214 2 -252 0 -263 -13 -18 -21 2 -54 36 -58 36 -4 44
-41 13 -58 -32 -17 -85 4 -110 44 -34 56 -25 97 32 138 32 22 42 23 278 28
336 7 326 24 -16 28 -224 2 -263 0 -274 -13 -7 -8 -18 -15 -24 -15 -46 -2 -69
-140 -31 -192 32 -44 94 -70 152 -63 104 13 308 12 340 -2 73 -30 98 -123 49
-180 l-24 -28 -224 -5 c-201 -5 -226 -7 -249 -24 -47 -37 -63 -67 -63 -121 0
-87 62 -145 149 -139 22 1 149 3 283 4 251 1 272 -2 272 -39 0 -10 -6 -25 -13
-35 -12 -17 -34 -18 -304 -17 -265 2 -295 4 -331 21 -76 37 -142 129 -142 198
0 48 34 123 72 162 60 59 124 73 335 68 143 -2 175 0 183 11 5 9 5 22 -1 33
-9 16 -27 18 -212 18 -181 0 -208 2 -243 19 -52 25 -101 76 -109 112 -4 16
-11 31 -16 34 -17 11 -9 86 16 139 32 67 80 107 153 126 68 18 484 18 534 1z
m272 -5 c30 -23 40 -40 80 -131 10 -22 24 -53 32 -68 8 -16 14 -36 14 -46 0
-9 4 -21 9 -26 5 -6 25 -50 46 -100 20 -49 43 -105 51 -122 8 -18 21 -50 30
-70 9 -21 23 -51 30 -66 8 -16 14 -37 14 -46 0 -10 9 -30 20 -44 18 -23 24
-25 45 -15 14 6 25 17 25 24 0 14 22 69 46 116 8 14 14 34 14 45 0 10 7 27 15
37 8 11 15 27 15 35 0 9 9 27 19 40 14 19 24 22 45 17 22 -5 26 -12 26 -40 0
-18 -7 -39 -15 -46 -8 -7 -15 -23 -15 -35 0 -12 -7 -28 -15 -35 -8 -7 -15 -19
-15 -27 0 -8 -7 -27 -15 -41 -8 -15 -24 -49 -35 -76 -31 -70 -65 -98 -114 -92
-41 5 -92 44 -102 80 -3 12 -11 35 -19 51 -7 17 -20 46 -28 65 -8 19 -23 53
-33 75 -9 22 -23 54 -30 70 -26 64 -71 170 -90 212 -8 17 -14 36 -14 41 0 6
-7 23 -15 39 -8 15 -22 47 -32 70 -17 41 -35 53 -48 33 -5 -9 13 -60 53 -150
8 -19 22 -51 30 -70 9 -19 22 -51 30 -70 9 -19 21 -50 29 -67 28 -71 41 -100
82 -195 12 -26 21 -50 21 -55 0 -4 14 -35 30 -68 40 -79 67 -98 141 -99 95 -1
109 17 233 319 21 49 38 98 43 125 3 14 12 34 19 45 8 11 14 29 14 40 0 12 4
25 9 30 5 6 26 51 46 100 21 50 44 104 51 122 8 17 14 37 14 44 0 18 30 49 48
49 20 0 52 -29 52 -48 0 -8 -15 -47 -34 -86 -47 -97 -66 -142 -66 -154 0 -6
-6 -23 -14 -39 -14 -27 -34 -72 -64 -143 -9 -19 -22 -51 -30 -70 -9 -19 -22
-51 -30 -70 -8 -19 -21 -48 -28 -63 -8 -16 -14 -37 -14 -47 0 -9 -7 -23 -15
-30 -8 -7 -15 -19 -15 -27 0 -23 -38 -89 -67 -117 -101 -94 -236 -85 -321 23
-21 27 -44 64 -51 82 -7 19 -19 47 -27 62 -8 16 -14 35 -14 44 0 8 -7 27 -14
41 -8 15 -22 45 -31 67 -9 22 -23 55 -31 73 -43 97 -59 136 -88 207 -7 17 -19
46 -28 65 -8 19 -23 52 -32 73 -9 21 -16 44 -16 52 0 38 60 102 99 104 8 1 28
-10 45 -23z m-1449 -113 c11 -6 41 -20 66 -32 64 -29 159 -125 159 -160 0 -5
4 -11 10 -13 14 -5 30 -132 24 -192 -6 -51 -42 -146 -56 -146 -5 0 -8 -5 -8
-11 0 -21 -115 -119 -140 -119 -6 0 -21 -7 -34 -16 -17 -10 -43 -14 -88 -12
-63 3 -63 3 -63 33 0 25 4 30 25 33 14 1 52 8 85 15 53 11 67 19 123 74 34 35
62 69 62 77 0 7 7 27 15 42 8 16 15 52 15 79 0 28 -7 63 -15 79 -8 15 -15 34
-15 41 0 21 -88 112 -128 133 -38 19 -115 29 -267 34 l-80 3 -5 -320 -5 -320
-30 0 -30 0 -5 335 c-3 203 -1 344 5 359 l9 23 176 -4 c99 -2 184 -8 195 -15z
m1195 -157 c0 -16 -14 -36 -26 -36 -14 0 -19 22 -7 33 7 8 33 10 33 3z m-1250
-27 c0 -7 11 -9 28 -6 31 6 84 -25 63 -37 -7 -4 -18 -2 -26 4 -24 20 -18 -7 7
-32 14 -14 23 -18 26 -10 8 25 21 10 20 -23 -1 -21 6 -43 16 -54 17 -19 17
-20 -4 -31 -18 -10 -21 -17 -16 -45 6 -30 4 -33 -23 -38 -18 -4 -32 -14 -36
-27 -3 -11 -10 -20 -15 -20 -5 0 -18 -9 -29 -21 -15 -17 -23 -19 -39 -10 -34
18 -45 14 -37 -16 5 -23 4 -26 -6 -15 -7 6 -21 12 -31 12 -10 0 -18 7 -18 15
0 8 -6 15 -14 15 -10 0 -15 30 -20 125 -4 69 -4 130 0 136 3 6 7 24 8 40 1 17
9 35 17 40 21 13 129 11 129 -2z m1107 -317 c11 -7 16 -26 14 -49 0 -6 -11
-15 -23 -19 -25 -9 -270 -7 -329 2 -68 10 -79 -44 -14 -72 37 -15 48 -47 19
-58 -36 -14 -67 -5 -100 28 -46 46 -46 83 2 136 l36 40 192 0 c105 0 196 -4
203 -8z m-1221 -76 c19 -20 18 -26 -6 -26 -13 0 -20 7 -20 20 0 24 6 25 26 6z"/>
<path d="M4520 3141 c-19 -4 -56 -18 -82 -31 -39 -19 -50 -21 -63 -10 -20 17
-32 5 -15 -15 10 -12 10 -19 2 -27 -9 -9 -15 -7 -26 7 -13 18 -14 18 -27 -3
-8 -12 -22 -22 -32 -22 -13 0 -17 -5 -13 -15 3 -9 -4 -20 -22 -29 -15 -8 -38
-29 -52 -47 -14 -18 -37 -46 -52 -62 -21 -21 -26 -35 -22 -52 4 -18 -1 -30
-19 -48 -23 -21 -26 -33 -33 -133 l-7 -109 34 -35 c47 -49 89 -98 122 -143 22
-30 27 -45 22 -68 -6 -25 -4 -29 14 -29 11 0 25 -9 31 -20 6 -11 20 -20 30
-20 14 0 20 -7 20 -23 0 -19 14 -29 82 -61 132 -60 223 -69 259 -23 16 20 18
20 53 3 31 -15 36 -22 36 -51 0 -25 4 -35 15 -35 9 0 22 -14 29 -31 7 -17 24
-36 37 -43 15 -7 23 -19 21 -30 -2 -13 1 -16 15 -12 12 4 32 -4 53 -19 53 -39
151 -29 165 17 4 10 11 18 17 18 15 0 51 48 65 87 15 42 7 86 -24 135 -29 47
-30 63 -4 48 11 -5 29 -10 40 -10 24 0 27 -10 9 -28 -9 -9 -7 -12 11 -12 13 0
46 -21 79 -50 43 -39 64 -50 89 -50 28 0 33 -3 33 -24 0 -32 17 -42 39 -22 16
14 18 14 34 -4 9 -11 23 -20 31 -20 7 0 19 -7 27 -16 12 -14 14 -14 25 1 10
14 15 14 33 3 16 -10 23 -10 29 -1 4 6 19 14 33 18 21 5 27 2 32 -14 5 -19 9
-20 33 -11 15 6 34 20 41 30 8 11 22 20 31 20 30 0 91 36 169 101 l76 63 21
-25 c12 -13 30 -36 41 -49 39 -48 100 -83 175 -101 19 -4 149 -9 289 -9 222
-1 256 -3 266 -17 11 -14 14 -13 26 13 9 19 26 32 47 39 21 6 31 14 27 23 -6
17 23 28 38 13 6 -6 22 -11 36 -11 40 0 58 -15 42 -34 -18 -21 5 -31 41 -17
29 11 39 6 31 -15 -8 -21 28 -31 39 -11 12 22 47 22 63 0 11 -15 17 -15 39 -5
16 7 72 12 136 12 63 0 111 4 115 10 4 6 23 19 44 30 28 14 41 16 49 8 8 -8
12 -8 15 3 19 65 24 74 45 77 19 3 23 9 20 30 -2 22 1 26 16 24 16 -3 18 1 12
30 -3 20 -3 28 3 20 11 -18 46 -11 46 9 0 17 59 72 88 82 9 4 17 13 17 20 0 8
10 27 22 42 l21 27 -21 17 c-14 10 -20 23 -16 36 3 11 -2 34 -10 50 -9 17 -16
42 -16 58 0 17 -5 27 -14 27 -8 0 -18 9 -21 20 -3 11 -13 20 -22 20 -11 0 -14
6 -9 25 5 21 3 25 -17 25 -31 0 -89 29 -82 41 4 5 13 9 21 9 12 0 13 4 4 21
-16 29 -5 52 20 44 11 -3 20 -2 20 4 0 5 11 23 25 39 13 16 22 31 20 34 -3 3
2 29 12 58 16 49 16 53 0 65 -9 7 -17 19 -17 27 0 17 -51 68 -68 68 -7 0 -15
7 -18 14 -10 25 -102 35 -299 33 -182 -3 -209 -7 -280 -39 -40 -18 -66 -36
-79 -54 -13 -18 -16 -18 -50 -2 -20 10 -43 15 -51 11 -11 -4 -18 1 -22 16 -3
14 -25 31 -60 47 l-55 26 -268 -4 c-259 -3 -270 -4 -299 -26 -17 -12 -34 -22
-39 -22 -5 0 -17 -9 -27 -20 -14 -16 -21 -18 -33 -8 -11 10 -17 9 -28 -7 -14
-18 -14 -18 -36 1 -35 30 -79 56 -86 50 -3 -3 -13 1 -23 10 -29 26 -93 10
-139 -36 -75 -75 -75 -74 -78 -285 -2 -104 -8 -195 -14 -202 -6 -7 -5 -18 3
-31 10 -16 10 -26 1 -47 -10 -21 -10 -31 -1 -41 13 -15 5 -44 -11 -44 -6 0
-10 8 -8 18 1 9 -1 18 -5 20 -19 6 -26 -1 -29 -30 -2 -28 -8 -34 -30 -36 -16
-2 -28 -9 -28 -18 0 -38 -57 0 -66 45 -6 28 -8 30 -20 14 -22 -31 -39 0 -40
75 0 37 -2 72 -3 77 -8 29 -1 298 8 308 6 8 2 28 -14 62 -13 28 -24 63 -24 79
-1 25 -3 27 -17 15 -13 -11 -19 -9 -37 13 -12 14 -35 29 -51 32 -23 6 -33 2
-55 -22 -14 -17 -35 -32 -46 -34 -13 -2 -19 -10 -17 -22 2 -10 -6 -28 -18 -41
-18 -19 -21 -33 -19 -91 2 -39 -1 -75 -5 -82 -10 -16 -36 -15 -36 1 0 8 -25
41 -55 75 -31 34 -51 63 -45 67 17 11 11 24 -15 31 -14 3 -25 10 -25 14 0 5
-16 14 -36 20 -22 8 -39 21 -45 37 -7 18 -15 24 -33 21 -14 -1 -37 6 -53 18
-56 42 -238 65 -343 45z m255 -109 c28 -10 57 -22 65 -27 8 -5 33 -19 54 -31
158 -85 268 -351 211 -509 -8 -22 -15 -46 -15 -54 0 -23 -38 -96 -65 -125 -14
-15 -25 -36 -25 -47 0 -11 21 -48 47 -82 39 -50 47 -69 47 -99 -3 -82 -100
-124 -158 -69 -14 14 -26 28 -26 32 0 5 -23 42 -51 84 -30 43 -49 81 -45 90 3
8 21 23 41 32 40 19 44 34 15 63 -28 28 -25 74 6 115 14 19 33 60 41 92 13 49
13 68 2 126 -7 37 -18 72 -26 78 -7 6 -13 16 -13 22 0 15 -71 87 -85 87 -6 0
-16 5 -23 12 -49 49 -235 49 -284 0 -7 -7 -17 -12 -24 -12 -16 0 -78 -73 -104
-122 -30 -59 -28 -180 5 -245 34 -68 110 -143 145 -143 9 0 21 -5 28 -12 6 -6
34 -12 62 -14 56 -3 80 -16 80 -45 0 -25 -40 -61 -60 -53 -8 4 -24 6 -35 5
-11 0 -33 6 -50 13 -16 8 -48 22 -69 32 -111 48 -207 187 -211 305 -5 150 87
304 220 369 55 27 71 30 156 30 88 0 100 -2 162 -34 129 -66 207 -188 207
-323 0 -71 -21 -146 -54 -195 -19 -29 -16 -58 7 -58 7 0 28 30 47 67 34 65 35
72 35 178 0 104 -2 113 -33 175 -36 71 -69 111 -125 154 -128 98 -297 109
-442 30 -54 -30 -125 -85 -125 -98 0 -3 -13 -24 -29 -48 -16 -24 -32 -58 -36
-75 -3 -18 -11 -35 -16 -38 -5 -4 -9 -33 -9 -66 0 -55 -2 -60 -26 -69 -33 -13
-32 -13 -44 10 -12 22 3 156 20 189 5 9 19 38 32 65 42 89 196 225 256 226 9
1 28 7 42 15 37 21 211 19 275 -3z m619 2 c3 -9 6 -148 6 -309 0 -185 4 -296
10 -300 6 -3 10 -13 10 -22 0 -8 14 -32 30 -53 99 -125 297 -102 371 42 17 34
19 61 19 302 0 185 4 273 12 291 7 15 29 35 50 46 35 18 40 18 68 4 62 -32 62
-34 58 -362 -4 -284 -5 -300 -26 -343 -33 -66 -42 -79 -93 -129 -49 -50 -70
-65 -109 -81 -14 -6 -36 -16 -49 -23 -37 -19 -238 -14 -276 7 -16 9 -36 16
-42 16 -7 0 -13 4 -13 9 0 5 -9 12 -20 16 -32 10 -115 98 -137 146 -43 89 -53
122 -53 172 0 46 16 75 41 77 16 0 41 -56 44 -103 3 -29 13 -71 25 -94 21 -44
99 -133 116 -133 5 0 15 -5 21 -11 20 -20 116 -48 163 -48 84 0 240 73 255
119 4 11 10 20 13 20 8 0 34 47 56 104 13 31 16 87 16 297 0 178 -3 260 -11
265 -24 14 -29 -29 -29 -253 0 -256 -9 -318 -56 -382 -49 -66 -96 -95 -186
-117 -49 -12 -67 -12 -117 0 -70 16 -149 66 -176 109 -59 97 -58 91 -64 402
-4 171 -3 299 3 313 11 26 60 31 70 6z m1431 2 c55 -14 86 -75 66 -128 -14
-38 -68 -70 -106 -64 -16 3 -124 6 -239 7 -172 1 -211 -1 -223 -14 -21 -20 -1
-57 31 -57 16 0 26 -7 30 -22 16 -65 -84 -58 -123 8 -25 42 -26 52 -6 91 32
65 45 67 315 73 330 7 324 24 -10 28 -282 3 -292 1 -335 -68 -67 -106 18 -228
150 -215 22 2 103 5 180 6 160 3 188 -5 224 -66 25 -44 26 -64 4 -103 -28 -48
-54 -53 -281 -55 -200 -2 -209 -3 -237 -25 -85 -67 -86 -166 -1 -233 27 -21
36 -22 329 -23 l302 -1 3 -34 c2 -18 -1 -38 -6 -43 -6 -6 -127 -9 -301 -8
l-291 1 -51 26 c-27 15 -59 38 -70 52 -10 14 -23 31 -28 38 -15 17 -24 106
-17 157 5 34 18 57 51 93 65 73 114 85 324 83 220 -3 203 -5 199 28 l-3 27
-216 5 -216 5 -44 28 c-79 51 -108 122 -94 232 6 49 12 61 53 102 74 72 105
78 382 76 129 -1 244 -4 255 -7z m837 -4 c74 -30 92 -102 38 -153 -16 -16 -35
-29 -42 -30 -7 0 -106 -1 -220 -2 -201 -2 -208 -3 -230 -25 -17 -17 -23 -34
-23 -67 0 -38 5 -49 30 -70 29 -24 35 -24 205 -25 138 0 179 -4 194 -15 11 -8
26 -15 34 -15 22 0 107 -86 130 -132 34 -70 31 -168 -7 -168 -25 0 -41 20 -41
51 0 43 -35 113 -75 152 -47 46 -124 60 -307 55 -153 -3 -176 4 -220 67 -58
84 -23 192 82 255 19 12 72 16 228 20 279 7 272 24 -12 28 l-219 2 -36 -27
c-70 -52 -101 -101 -101 -162 0 -31 -5 -43 -21 -52 -30 -16 -69 3 -69 33 1 30
34 126 49 141 6 6 11 14 11 19 0 10 69 78 79 78 5 0 14 6 20 14 18 22 55 28
226 35 203 8 263 6 297 -7z m-3004 -287 c12 -15 30 -25 46 -25 16 0 26 -6 26
-15 0 -9 9 -15 25 -15 28 0 49 -33 59 -96 6 -31 1 -56 -19 -109 -17 -45 -24
-79 -20 -97 7 -32 -2 -36 -20 -11 -11 15 -13 15 -20 -7 -5 -16 -3 -25 9 -32 9
-5 16 -16 16 -23 0 -20 -29 -19 -36 0 -4 8 -15 15 -26 15 -12 0 -26 7 -32 15
-6 8 -32 19 -58 24 -57 10 -65 16 -124 94 -43 57 -45 64 -39 105 8 52 25 94
42 105 7 4 13 14 13 21 0 18 40 36 75 34 24 -3 31 1 33 20 4 29 26 28 50 -3z
m2169 14 c7 -7 29 -12 49 -13 41 -1 57 -20 23 -29 -11 -3 -18 -10 -15 -15 8
-13 56 -22 56 -11 0 20 28 7 40 -18 21 -42 51 -73 72 -73 13 0 18 -7 18 -25 0
-18 5 -25 20 -25 11 0 20 -6 20 -14 0 -7 7 -19 15 -26 8 -7 15 -21 15 -31 0
-12 7 -19 20 -19 13 0 24 -10 30 -25 6 -15 17 -25 30 -25 11 0 20 -5 20 -11 0
-7 -8 -9 -22 -4 -13 3 -34 9 -48 12 -23 6 -24 5 -11 -11 12 -15 13 -19 1 -26
-15 -10 -59 18 -60 38 0 14 -16 16 -25 2 -3 -6 1 -13 9 -16 23 -9 19 -23 -9
-34 -14 -5 -25 -14 -25 -20 0 -5 -11 -10 -25 -10 -14 0 -25 -6 -25 -13 0 -14
-52 -57 -68 -57 -6 0 -12 -9 -15 -21 -3 -12 -10 -18 -16 -14 -6 3 -9 10 -6 15
3 4 2 15 -1 24 -4 12 -16 14 -56 9 -41 -5 -52 -3 -60 10 -5 10 -16 17 -23 17
-17 0 -20 16 -4 25 5 4 18 0 28 -9 19 -17 41 -21 41 -7 0 5 -7 22 -15 37 -13
26 -13 29 0 32 8 2 15 9 15 17 0 7 15 46 34 86 39 84 40 143 4 152 -15 4 -18
11 -13 26 3 12 2 21 -4 21 -5 0 -12 13 -16 30 -4 16 -11 32 -16 35 -11 7 -12
25 -1 25 4 0 13 -5 19 -11z m774 -237 c45 -30 66 -56 84 -105 24 -63 9 -117
-47 -169 l-39 -38 -239 0 c-164 0 -241 -3 -246 -11 -15 -25 28 -30 226 -27
l205 3 9 -28 c11 -30 -1 -63 -23 -61 -6 1 -107 2 -224 3 l-213 1 -32 29 c-41
38 -44 86 -6 130 l26 31 227 0 c221 0 229 1 262 23 25 17 35 31 37 56 10 97
-22 113 -213 112 -152 -2 -174 5 -160 49 6 19 14 20 173 20 142 0 171 -3 193
-18z m-883 -134 c6 -50 -21 -56 -213 -48 -131 6 -173 5 -184 -5 -20 -20 -5
-53 27 -57 22 -2 28 -9 30 -35 3 -32 2 -33 -37 -33 -34 0 -44 6 -70 37 -17 21
-31 47 -31 59 0 32 25 74 57 95 25 17 46 19 223 17 l195 -3 3 -27z m-1534
-127 c3 -5 -1 -11 -9 -15 -15 -6 -29 7 -18 18 9 9 21 8 27 -3z"/>
<path d="M4914 2176 c-5 -14 64 -126 78 -126 20 0 19 34 -1 60 -11 16 -21 33
-21 38 0 10 -33 42 -44 42 -3 0 -9 -6 -12 -14z"/>
<path d="M8036 3115 c-15 -8 -33 -15 -38 -15 -16 0 -88 -78 -88 -95 0 -8 6
-15 14 -15 21 0 31 -21 15 -31 -12 -7 -12 -12 -1 -30 12 -18 11 -24 -7 -43
-12 -12 -21 -30 -21 -39 0 -10 -7 -20 -15 -23 -22 -9 -19 -17 28 -69 23 -26
48 -56 55 -66 14 -21 42 -25 58 -9 8 8 15 6 24 -5 15 -18 57 -20 63 -2 2 7 8
8 13 3 5 -5 4 -11 -3 -13 -18 -6 -16 -33 1 -33 8 0 16 4 18 9 2 4 13 12 26 15
15 5 24 3 28 -8 3 -9 14 -16 25 -16 32 0 127 -28 154 -46 51 -33 58 -71 70
-370 4 -123 13 -174 31 -181 17 -6 18 -29 2 -37 -10 -5 -10 -7 1 -12 7 -4 22
-15 33 -26 45 -45 118 -44 118 2 0 11 8 29 18 39 37 42 39 47 33 96 -4 28 -10
55 -14 62 -5 7 1 17 14 23 20 11 20 12 2 32 -13 15 -15 22 -5 25 36 13 37 75
0 65 -15 -3 -19 -1 -16 9 3 8 12 14 21 14 24 0 31 13 17 30 -7 8 -9 22 -6 31
4 9 1 23 -6 31 -10 12 -9 18 5 28 18 13 23 45 7 45 -5 0 -10 9 -10 20 0 11 5
20 10 20 6 0 15 11 22 25 12 27 62 54 116 62 20 3 43 13 50 21 10 14 16 14 32
4 13 -8 21 -8 26 -1 4 6 20 8 41 4 27 -5 40 -1 64 19 17 15 35 26 40 26 14 0
11 -38 -3 -43 -10 -4 -10 -6 0 -6 7 -1 25 11 39 27 17 18 27 23 30 15 8 -22
25 -14 18 7 -4 12 -2 20 5 20 13 0 57 48 65 73 4 10 -7 40 -25 73 l-32 55 20
48 c23 56 19 68 -43 123 -32 29 -52 37 -96 43 -64 8 -161 -9 -180 -31 -9 -11
-15 -11 -25 -3 -10 8 -21 4 -45 -20 -22 -22 -37 -30 -51 -25 -12 4 -24 0 -32
-12 -9 -11 -18 -14 -27 -8 -8 5 -21 7 -31 6 -9 -2 -19 2 -23 8 -3 5 -23 10
-44 10 -20 0 -43 6 -50 13 -11 10 -14 10 -18 0 -3 -7 -13 -13 -23 -13 -10 0
-21 -4 -25 -10 -7 -12 -102 -7 -138 8 -16 7 -32 10 -37 7 -4 -3 -13 2 -20 10
-7 8 -18 15 -25 15 -8 0 -15 5 -17 12 -5 13 -110 36 -168 37 -19 1 -48 -6 -64
-14z m166 -86 c91 -45 120 -57 151 -65 15 -3 27 -10 27 -14 0 -5 13 -11 30
-15 16 -4 32 -11 35 -16 11 -17 33 -9 39 14 17 71 176 76 176 5 0 -34 16 -44
39 -24 10 9 21 16 25 16 8 0 36 12 141 60 33 16 71 31 85 35 13 4 31 14 39 23
11 11 30 13 78 9 68 -5 116 -29 111 -54 -3 -16 -62 -54 -146 -94 -52 -24 -46
-44 10 -35 33 5 48 2 86 -22 26 -16 55 -31 65 -35 26 -10 21 -42 -9 -56 -14
-6 -53 -14 -85 -18 -32 -3 -64 -12 -70 -19 -7 -9 -32 -14 -66 -14 -29 0 -64
-6 -76 -14 -12 -7 -50 -16 -85 -20 -54 -5 -65 -3 -83 15 -20 20 -21 20 -34 2
-8 -10 -15 -30 -15 -45 0 -15 -6 -33 -14 -40 -10 -11 -15 -53 -18 -159 -2 -79
-8 -151 -13 -159 -5 -8 -10 -28 -10 -45 -1 -16 -2 -87 -3 -157 -2 -128 -2
-128 -26 -128 -13 0 -28 6 -34 13 -7 8 -13 87 -17 196 -3 101 -8 188 -12 194
-8 12 -9 25 -15 167 -3 60 -10 93 -22 112 -10 16 -16 34 -13 43 11 26 -12 27
-40 1 -30 -28 -39 -31 -48 -16 -3 6 -27 10 -53 10 -26 0 -60 7 -76 15 -15 8
-47 15 -70 15 -23 0 -50 6 -61 14 -11 7 -45 15 -76 18 -83 7 -141 57 -86 74
12 4 24 10 27 13 3 4 21 17 42 29 28 18 45 21 76 16 59 -9 61 11 5 37 -26 12
-62 31 -78 44 -17 12 -39 24 -50 26 -38 8 -24 42 25 61 69 26 119 23 192 -13z"/>
<path d="M8080 2985 c13 -14 29 -25 36 -25 7 0 14 -4 16 -8 8 -19 128 -82 156
-82 36 0 52 17 25 27 -28 11 -168 96 -171 105 -2 4 -22 8 -45 8 l-40 0 23 -25z"/>
<path d="M8955 2965 c-38 -24 -75 -48 -81 -53 -6 -5 -19 -12 -29 -13 -10 -2
-18 -8 -16 -14 2 -14 94 -11 99 3 2 7 8 12 13 12 11 0 72 42 77 53 2 4 9 7 16
7 7 0 25 11 40 25 l27 25 -38 -1 c-27 0 -59 -13 -108 -44z"/>
<path d="M8525 2921 c-5 -9 40 -51 55 -51 12 0 50 46 43 53 -10 10 -91 8 -98
-2z"/>
<path d="M8395 2891 c-3 -5 -1 -12 4 -15 13 -8 42 4 35 15 -7 12 -31 12 -39 0z"/>
<path d="M8720 2891 c0 -15 16 -22 35 -15 13 5 14 8 3 15 -18 12 -38 11 -38 0z"/>
<path d="M8061 2814 l-24 -21 60 -5 c33 -3 68 -10 79 -16 19 -10 108 -28 192
-39 36 -4 46 -1 65 18 12 13 34 33 48 44 14 11 25 25 25 30 -1 6 -78 10 -211
10 -198 0 -211 -1 -234 -21z"/>
<path d="M8630 2824 c0 -7 4 -14 10 -14 5 0 28 -18 52 -40 37 -34 49 -40 89
-40 25 0 50 5 55 10 6 6 35 13 65 16 30 4 73 12 97 20 23 8 59 14 80 14 l36 0
-21 21 c-20 21 -32 22 -242 25 -188 2 -221 1 -221 -12z"/>
<path d="M8531 2789 c-29 -24 -32 -71 -7 -116 8 -15 18 -36 22 -45 13 -36 19
-16 19 64 0 46 2 89 5 97 8 22 -13 22 -39 0z"/>
<path d="M8600 2710 c0 -94 15 -122 26 -50 4 22 11 43 15 46 16 10 9 54 -11
74 -11 11 -22 20 -25 20 -3 0 -5 -40 -5 -90z"/>
<path d="M8562 2561 c-12 -7 -11 -20 2 -77 9 -38 17 -82 19 -99 2 -16 7 13 11
67 10 112 4 132 -32 109z"/>
<path d="M952 3068 c6 -18 28 -21 28 -4 0 9 -7 16 -16 16 -9 0 -14 -5 -12 -12z"/>
<path d="M7796 2802 c-3 -6 -1 -14 5 -17 15 -10 25 3 12 16 -7 7 -13 7 -17 1z"/>
<path d="M1185 1713 c-54 -19 -95 -60 -95 -94 0 -15 -7 -29 -15 -33 -8 -3 -15
-15 -15 -26 0 -11 7 -20 15 -20 8 0 15 -9 15 -20 0 -11 -4 -20 -9 -20 -14 0
-23 -32 -12 -43 11 -11 4 -66 -10 -82 -12 -13 -11 -55 1 -55 6 0 10 5 10 10 0
6 5 10 11 10 7 0 9 -10 4 -27 -18 -65 -22 -112 -10 -117 7 -2 16 -17 19 -33
11 -40 34 -62 75 -69 20 -4 42 -11 48 -16 8 -7 24 -6 44 1 45 15 79 14 79 -3
0 -8 5 -18 12 -22 8 -5 9 2 5 24 -5 25 -2 33 18 46 14 9 25 23 25 31 0 8 7 15
15 15 13 0 13 3 3 20 -10 16 -10 22 6 33 16 12 16 14 2 26 -9 8 -14 21 -11 31
5 16 -34 60 -54 60 -5 0 -14 7 -21 15 -14 17 -34 9 -26 -11 6 -15 -34 -64 -53
-64 -15 0 -14 23 2 39 10 11 8 12 -10 7 -31 -10 -48 22 -25 47 14 16 14 19 2
28 -13 8 -12 11 4 24 19 15 14 35 -10 35 -8 0 -14 4 -14 9 0 19 42 81 55 81
23 0 27 -20 10 -46 -20 -31 -15 -37 25 -36 16 0 30 -4 30 -9 0 -6 10 -9 23 -7
27 4 26 22 -3 26 -17 3 -20 11 -20 48 0 93 -72 135 -132 77 l-28 -27 0 -158
c0 -169 10 -216 48 -237 32 -17 54 -13 84 16 23 22 28 35 28 75 0 45 2 48 25
48 24 0 25 -2 25 -75 0 -48 -4 -75 -11 -75 -6 0 -20 -11 -31 -25 -17 -22 -27
-25 -85 -25 -61 0 -67 2 -99 34 l-34 34 0 211 0 210 31 36 c30 34 34 35 98 35
65 0 69 -1 99 -36 29 -32 32 -42 32 -100 0 -69 10 -79 37 -37 13 19 14 28 5
31 -14 4 -16 38 -2 47 17 11 11 23 -16 29 -19 5 -25 12 -21 25 6 24 0 33 -47
65 -44 29 -87 32 -151 9z m65 -468 c0 -8 -4 -15 -10 -15 -5 0 -10 7 -10 15 0
8 5 15 10 15 6 0 10 -7 10 -15z"/>
<path d="M1893 1721 c-89 -7 -125 -27 -137 -77 -4 -13 -13 -24 -21 -24 -23 0
-28 -20 -9 -41 15 -16 15 -19 1 -19 -22 0 -27 -22 -9 -42 13 -16 13 -18 -2
-24 -16 -6 -23 -44 -8 -44 12 0 13 -80 1 -102 -7 -14 -7 -24 2 -34 10 -12 10
-22 0 -50 -14 -38 -7 -58 16 -50 12 5 14 1 9 -17 -5 -20 3 -32 38 -64 24 -21
45 -46 48 -54 4 -12 8 -11 25 3 15 14 22 15 31 6 7 -7 12 -18 12 -25 0 -7 5
-13 10 -13 6 0 10 9 10 20 0 11 7 20 15 20 8 0 15 -7 15 -15 0 -8 4 -15 9 -15
5 0 16 -3 24 -6 12 -4 14 0 10 14 -3 15 2 21 21 26 43 11 95 50 96 72 0 11 5
25 12 32 12 12 15 279 3 320 -6 16 -4 21 6 19 8 -2 11 -2 7 0 -13 7 -9 41 5
47 8 4 5 10 -10 22 -13 9 -23 23 -23 30 0 8 -6 14 -14 14 -8 0 -16 7 -19 15
-5 12 -82 68 -89 63 -2 0 -40 -4 -85 -7z m138 -78 l39 -37 0 -199 c0 -170 -2
-203 -17 -228 -10 -16 -23 -29 -29 -29 -6 0 -17 -7 -24 -15 -9 -11 -32 -15
-82 -15 -67 0 -70 1 -103 37 -39 43 -46 74 -46 228 1 181 7 218 47 259 34 35
38 36 105 36 68 0 72 -2 110 -37z"/>
<path d="M1861 1599 l-31 -31 0 -166 c0 -182 3 -192 62 -221 23 -12 31 -11 63
5 40 20 67 74 55 109 -3 10 -5 66 -3 126 2 59 -1 125 -6 147 -9 33 -17 41 -50
50 -53 16 -56 16 -90 -19z m76 -96 c6 -21 8 -44 4 -53 -5 -8 -11 -28 -15 -43
-6 -23 -4 -28 11 -25 12 2 19 -4 21 -19 2 -13 -1 -23 -6 -23 -5 0 -15 -13 -22
-30 -7 -16 -16 -30 -21 -30 -15 0 -21 21 -9 35 7 8 9 23 5 32 -6 17 -7 17 -22
-2 -15 -19 -15 -18 -8 15 5 19 9 53 9 75 1 22 7 50 14 63 7 12 10 22 7 22 -4
0 -3 5 0 10 11 18 20 11 32 -27z"/>
<path d="M3097 1690 l-42 -39 -3 -235 c-3 -250 -1 -267 46 -310 18 -15 41 -19
157 -21 130 -3 136 -2 147 18 6 12 18 28 27 34 11 9 13 15 5 20 -6 5 -13 16
-17 26 -11 31 -27 18 -27 -23 l0 -40 -132 0 c-73 0 -139 4 -146 8 -9 7 -12 69
-10 278 l3 269 143 3 c138 2 171 11 119 31 -13 5 -69 12 -126 15 l-102 5 -42
-39z"/>
<path d="M4322 1720 c-29 -4 -63 -15 -76 -23 -35 -24 -90 -141 -81 -175 4 -15
8 -69 10 -120 3 -88 3 -93 -16 -87 -27 9 -26 -36 2 -53 17 -11 20 -20 15 -43
-5 -25 2 -37 47 -85 61 -66 92 -82 117 -59 21 19 50 20 50 1 0 -23 20 -29 39
-12 10 9 25 16 35 16 9 0 21 11 26 25 5 14 15 25 21 25 21 0 38 34 39 76 0 25
6 47 15 54 17 14 17 49 0 53 -5 1 -12 -11 -15 -28 -4 -22 -11 -30 -25 -30 -16
0 -21 -8 -23 -42 -2 -32 -10 -48 -33 -68 -27 -22 -40 -25 -108 -25 -68 0 -80
3 -99 23 -12 13 -22 28 -22 34 0 6 -6 16 -14 22 -10 9 -14 34 -12 91 1 67 5
82 24 103 25 26 22 51 -9 68 -26 13 -26 92 0 142 32 62 59 77 141 77 66 0 74
-2 101 -29 23 -23 29 -39 29 -70 0 -34 -3 -41 -19 -41 -33 0 -51 11 -51 32 0
41 -18 58 -64 58 -58 0 -75 -20 -77 -91 -3 -75 3 -81 65 -77 l51 3 0 -35 0
-35 -58 -3 -58 -3 3 -97 3 -97 42 -13 c39 -13 46 -12 75 5 26 15 34 27 36 54
2 23 -3 40 -12 49 -9 7 -16 23 -16 36 0 19 5 24 24 24 14 0 31 -7 40 -15 19
-20 52 -19 60 1 8 21 -2 37 -19 30 -16 -6 -65 37 -65 57 0 7 -3 17 -7 21 -4 4
-8 15 -8 24 0 9 -13 21 -30 26 -40 14 -40 13 -20 32 16 16 18 16 27 1 11 -21
66 -23 74 -2 4 8 12 15 19 15 24 0 26 68 3 112 -31 59 -98 82 -196 68z"/>
<path d="M8027 1717 c-37 -14 -87 -79 -87 -113 0 -8 5 -23 12 -34 10 -15 9
-22 -6 -39 -12 -14 -16 -26 -11 -38 5 -10 10 -87 11 -170 3 -172 14 -223 48
-223 12 0 32 -7 44 -16 26 -18 109 -21 125 -5 6 6 37 11 69 11 45 0 58 3 58
15 0 13 -21 15 -132 15 -73 0 -139 4 -147 9 -11 7 -14 57 -16 257 -1 137 2
259 6 272 8 21 12 22 149 22 131 0 160 6 128 27 -18 11 -225 20 -251 10z"/>
<path d="M8705 1722 c-16 -2 -38 -11 -47 -19 -30 -27 -56 -79 -48 -94 5 -7 7
-47 4 -88 -14 -251 -13 -285 7 -351 17 -58 23 -67 57 -82 44 -21 83 -23 99 -7
7 7 19 8 30 4 33 -15 85 -14 99 0 8 8 21 12 28 9 7 -3 16 1 19 9 4 12 -18 15
-134 16 -77 1 -145 4 -152 7 -9 3 -12 68 -10 266 1 143 4 267 7 275 4 10 37
13 146 13 130 0 160 6 128 26 -14 9 -190 20 -233 16z"/>
<path d="M2473 1710 c-10 -3 -30 -15 -44 -28 -22 -19 -26 -31 -24 -70 1 -26
-3 -55 -9 -65 -8 -13 -7 -20 4 -27 11 -7 12 -14 4 -27 -7 -12 -8 -62 -3 -153
4 -74 5 -145 2 -158 -5 -23 12 -70 32 -84 5 -4 31 -8 58 -8 46 0 87 -24 87
-51 0 -5 5 -7 11 -3 6 3 8 17 5 30 -6 23 -4 24 26 23 38 -3 128 52 128 77 0 8
12 26 27 40 26 24 27 27 10 38 -21 16 -22 49 -2 66 11 9 12 16 4 26 -6 7 -8
22 -4 33 4 12 0 30 -9 43 -17 23 -6 48 20 48 20 0 17 12 -11 42 -31 34 -32 61
-2 81 23 16 24 15 -28 32 -8 2 -15 14 -15 25 0 11 -7 20 -15 20 -8 0 -15 6
-15 14 0 23 -61 41 -142 41 -42 0 -84 -2 -95 -5z m209 -72 l46 -43 2 -186 c1
-157 -1 -188 -14 -199 -9 -7 -16 -19 -16 -26 0 -8 -18 -25 -40 -39 -37 -23
-49 -25 -128 -23 l-87 3 -3 265 c-1 146 0 270 3 277 3 9 32 13 98 13 l93 0 46
-42z"/>
<path d="M2501 1606 c-7 -9 -9 -21 -4 -28 4 -7 8 -96 8 -198 l1 -185 51 -3
c68 -4 88 8 101 60 13 55 14 251 1 300 -11 44 -27 54 -95 63 -39 6 -53 4 -63
-9z m69 -101 c0 -8 -4 -15 -9 -15 -13 0 -22 16 -14 24 11 11 23 6 23 -9z m55
-24 c3 -6 -2 -14 -11 -19 -13 -7 -17 -27 -18 -90 -1 -45 -5 -84 -8 -88 -15
-15 -26 10 -30 68 -4 58 7 110 28 131 10 10 32 9 39 -2z"/>
<path d="M5455 1712 c-39 -9 -75 -33 -75 -50 0 -9 -7 -11 -19 -7 -18 5 -19 3
-11 -24 7 -26 5 -33 -13 -46 -20 -14 -20 -15 -2 -35 16 -18 16 -20 1 -26 -13
-5 -15 -14 -11 -34 4 -16 1 -31 -5 -35 -8 -5 -7 -11 2 -22 8 -10 13 -53 13
-127 1 -90 -1 -113 -14 -123 -14 -11 -13 -12 7 -13 15 0 26 -9 32 -25 6 -15
17 -25 30 -25 11 0 20 -6 20 -12 0 -7 4 -19 9 -26 7 -12 12 -12 30 0 19 11 24
11 35 -4 16 -22 42 -23 50 -2 4 12 13 14 32 10 21 -6 32 0 60 29 19 20 34 41
34 46 0 5 9 9 19 9 19 0 19 2 5 35 -14 33 -13 35 6 35 11 0 20 7 20 15 0 8 -9
15 -19 15 -10 0 -22 7 -25 16 -8 22 -9 21 16 28 18 4 20 8 10 18 -9 9 -16 7
-32 -10 -16 -17 -20 -35 -20 -87 0 -48 -4 -65 -13 -65 -8 0 -19 -11 -25 -25
-11 -23 -16 -25 -86 -25 -72 0 -76 1 -105 33 l-31 32 0 210 0 210 31 38 c30
36 32 37 98 37 63 0 69 -2 99 -33 29 -30 32 -38 32 -99 0 -61 -2 -67 -22 -70
-19 -2 -22 -8 -20 -33 5 -40 22 -58 22 -23 0 15 9 33 19 40 11 8 23 27 27 43
4 17 12 36 18 44 7 10 6 16 -7 26 -22 15 -21 24 1 42 13 11 14 15 3 20 -7 3
-22 14 -32 24 -46 46 -123 66 -194 51z"/>
<path d="M6110 1711 c-45 -8 -100 -49 -93 -69 4 -9 -4 -22 -18 -33 l-24 -18 3
-183 c2 -101 8 -188 14 -195 5 -7 7 -17 3 -22 -6 -11 49 -71 65 -71 6 0 10 -6
10 -14 0 -7 6 -19 14 -25 10 -9 16 -8 26 4 11 13 16 14 34 2 12 -8 42 -14 68
-15 41 0 52 5 92 42 31 28 48 53 52 76 4 19 15 52 25 72 15 29 17 43 8 65 -5
15 -7 44 -4 65 5 25 3 38 -4 38 -16 0 -13 32 4 57 10 14 12 24 5 28 -5 3 -10
22 -10 41 0 40 -11 61 -64 120 -39 44 -39 44 -105 43 -36 -1 -82 -5 -101 -8z
m184 -71 l36 -40 0 -200 0 -200 -36 -40 c-36 -40 -37 -40 -110 -40 -69 0 -77
2 -105 30 -40 37 -50 86 -53 250 -3 152 11 218 55 255 27 22 40 25 104 25 72
0 73 0 109 -40z"/>
<path d="M6122 1602 l-32 -27 0 -161 c0 -171 6 -201 49 -230 16 -12 29 -13 60
-4 22 6 44 16 48 23 19 30 28 99 22 187 -3 52 -2 104 2 116 4 13 0 36 -11 62
-15 33 -26 43 -57 51 -48 14 -43 15 -81 -17z m86 -95 c2 -10 -3 -17 -13 -17
-8 0 -18 -7 -21 -15 -8 -20 -34 -19 -34 2 0 42 61 69 68 30z m18 -58 c3 -6 1
-16 -4 -21 -13 -13 -45 8 -36 23 7 12 31 11 40 -2z m-50 -43 c7 -8 19 -16 25
-18 7 -2 9 -12 4 -27 -9 -28 -39 -24 -43 7 -2 12 -8 22 -13 22 -5 0 -9 7 -9
15 0 19 17 19 36 1z m24 -132 c0 -21 -16 -41 -26 -32 -2 3 -7 18 -10 36 -6 28
-4 30 15 25 14 -3 21 -13 21 -29z"/>
<path d="M6721 1713 c-18 -7 -45 -35 -67 -68 -15 -23 -16 -46 -10 -218 8 -223
13 -263 35 -297 15 -24 16 -8 21 260 l5 285 138 3 c135 3 166 11 111 32 -26
10 -209 13 -233 3z"/>
<path d="M7343 1686 c-33 -30 -36 -36 -23 -50 12 -15 11 -18 -8 -23 -22 -5
-31 -33 -12 -33 15 0 12 -58 -2 -63 -10 -3 -10 -9 0 -26 15 -26 16 -73 1 -88
-9 -9 -9 -27 1 -72 7 -34 10 -79 6 -104 -5 -34 -3 -47 9 -57 10 -8 14 -22 11
-35 -4 -17 1 -24 27 -33 45 -16 72 -15 87 3 19 23 4 30 -33 17 -19 -7 -37 -12
-40 -12 -4 0 -6 127 -5 283 l3 282 138 3 c135 3 166 11 111 32 -14 6 -72 10
-130 10 l-104 0 -37 -34z"/>
<path d="M3396 1664 c-3 -9 -6 -29 -6 -46 0 -26 2 -29 15 -18 16 14 21 65 6
74 -5 3 -12 -1 -15 -10z"/>
<path d="M6990 1634 c0 -21 4 -33 10 -29 6 3 10 19 10 36 0 16 -4 29 -10 29
-5 0 -10 -16 -10 -36z"/>
<path d="M7650 1634 c0 -21 4 -33 10 -29 6 3 10 19 10 36 0 16 -4 29 -10 29
-5 0 -10 -16 -10 -36z"/>
<path d="M8970 1656 c0 -9 7 -16 16 -16 17 0 14 22 -4 28 -7 2 -12 -3 -12 -12z"/>
<path d="M5457 1602 l-27 -28 0 -163 c0 -171 8 -209 49 -231 54 -29 111 20
111 96 0 37 3 44 20 44 24 0 27 18 3 27 -11 4 -28 -7 -55 -38 l-38 -43 -18 24
c-17 25 -23 60 -23 132 0 20 -4 40 -9 43 -18 11 -10 27 10 22 13 -3 20 0 20 9
0 8 7 14 15 14 18 0 20 36 3 43 -7 2 -10 8 -6 12 4 4 17 -2 29 -13 17 -17 20
-27 15 -56 -4 -20 -4 -36 0 -36 16 0 33 38 34 76 0 31 -6 46 -28 67 -36 35
-71 34 -105 -1z"/>
<path d="M3174 1597 c-10 -28 1 -162 14 -161 6 1 57 2 113 3 62 0 98 5 94 11
-10 16 -67 39 -105 42 -41 4 -44 18 -6 36 14 7 26 20 26 28 0 16 31 19 47 3 8
-8 13 -7 18 1 4 6 3 16 -3 22 -27 27 -188 39 -198 15z"/>
<path d="M6758 1603 c-2 -4 -3 -44 -3 -88 l0 -80 80 2 c44 1 96 2 115 2 l35 2
-30 25 c-23 19 -37 23 -63 19 -41 -8 -56 18 -23 41 11 8 21 22 21 30 0 9 10
14 29 14 31 0 52 17 29 24 -28 9 -186 16 -190 9z"/>
<path d="M7418 1603 c-2 -4 -3 -44 -3 -88 l0 -80 80 2 c44 1 96 2 115 2 l35 2
-30 25 c-23 19 -37 23 -63 19 -41 -8 -56 18 -23 41 11 8 21 22 21 30 0 9 10
14 29 14 31 0 52 17 29 24 -28 9 -186 16 -190 9z"/>
<path d="M8070 1603 c-1 -5 -2 -44 -3 -88 l-2 -79 100 3 c55 1 103 5 107 7 4
3 2 16 -4 29 -8 19 -16 23 -33 19 -15 -4 -24 0 -28 10 -4 9 -15 16 -26 16 -30
0 -51 11 -51 26 0 23 29 28 49 10 13 -12 21 -14 26 -7 11 18 35 12 35 -9 0
-11 5 -20 10 -20 6 0 10 11 10 25 0 16 9 29 26 38 18 9 23 16 15 21 -7 4 -17
3 -24 -2 -7 -5 -40 -6 -82 -1 -91 10 -125 11 -125 2z"/>
<path d="M8730 1602 c-6 -128 -4 -167 8 -166 6 1 53 2 102 3 73 1 90 4 90 16
0 9 -9 15 -22 15 -29 1 -105 67 -92 79 5 5 25 11 44 13 32 3 36 0 47 -32 l12
-35 0 38 c1 34 5 40 31 50 17 6 30 14 30 17 0 8 -250 11 -250 2z"/>
<path d="M8947 1434 c-4 -4 -7 -20 -7 -36 0 -35 23 -34 28 1 4 25 -10 46 -21
35z"/>
<path d="M3391 1394 l-12 -33 -67 5 c-37 3 -82 10 -100 14 -42 11 -44 6 -40
-101 l3 -84 40 -3 c22 -2 68 -1 103 3 51 5 63 10 60 23 -2 11 -20 20 -53 27
-58 12 -124 65 -80 65 8 0 15 -4 15 -10 0 -18 22 -11 46 15 16 17 34 25 57 25
28 0 36 5 50 35 20 43 20 42 4 48 -9 3 -18 -7 -26 -29z"/>
<path d="M6990 1415 c0 -8 7 -15 15 -15 8 0 15 7 15 15 0 8 -7 15 -15 15 -8 0
-15 -7 -15 -15z"/>
<path d="M7650 1415 c0 -8 7 -15 15 -15 8 0 15 7 15 15 0 8 -7 15 -15 15 -8 0
-15 -7 -15 -15z"/>
<path d="M530 1394 c-97 -20 -136 -77 -92 -130 29 -35 58 -45 148 -51 77 -5
88 -4 114 15 16 12 38 22 50 22 11 0 20 6 20 14 0 7 6 19 14 26 13 10 13 16
-2 45 -9 19 -24 35 -33 35 -9 0 -36 9 -60 20 -51 23 -71 23 -159 4z m212 -53
c14 -2 19 -42 8 -56 -10 -12 -42 -15 -151 -15 l-139 0 0 33 c0 19 2 36 5 38 3
4 255 4 277 0z"/>
<path d="M9420 1390 c-8 -5 -29 -7 -47 -4 -27 5 -38 1 -63 -25 -20 -20 -30
-39 -28 -53 5 -35 26 -33 30 4 l3 33 140 0 140 0 0 -35 0 -35 -142 -3 c-79 -1
-143 -7 -143 -12 0 -5 10 -16 22 -24 26 -18 163 -23 173 -6 9 14 52 13 57 -2
6 -18 75 39 82 68 6 21 -1 33 -36 67 -24 23 -43 36 -46 29 -5 -15 -38 -16 -47
-2 -8 13 -75 13 -95 0z"/>
<path d="M8735 1377 c-2 -7 -5 -50 -8 -95 -3 -65 -1 -85 10 -89 7 -3 56 -2
108 2 72 5 95 10 95 21 0 8 -10 14 -24 14 -18 0 -25 6 -28 23 -2 14 -11 23
-25 25 -19 3 -23 -1 -23 -23 0 -30 -23 -30 -29 1 -2 10 -10 24 -19 30 -28 20
-7 44 40 45 24 1 54 2 67 3 13 1 26 6 28 13 3 7 -16 14 -54 18 -32 4 -75 11
-96 15 -27 6 -39 5 -42 -3z"/>
<path d="M8069 1370 c0 -5 -1 -47 -1 -92 l-1 -83 103 2 c56 1 104 4 107 6 3 3
2 15 -2 26 -7 22 -31 28 -37 10 -3 -9 -15 -9 -43 -3 -35 9 -40 14 -48 48 -13
52 5 71 51 54 25 -10 34 -10 44 0 10 10 9 16 -5 29 -13 14 -21 15 -42 5 -18
-8 -32 -9 -45 -2 -24 13 -80 13 -81 0z"/>
<path d="M6983 1355 c-3 -9 -3 -19 1 -22 8 -9 37 18 30 28 -8 14 -24 11 -31
-6z"/>
<path d="M7643 1355 c-3 -9 -3 -19 1 -22 8 -9 37 18 30 28 -8 14 -24 11 -31
-6z"/>
<path d="M6757 1283 c5 -124 17 -148 56 -105 19 21 22 42 7 42 -5 0 -10 7 -10
15 0 8 5 15 10 15 17 0 11 27 -7 34 -11 5 -13 10 -6 17 8 8 20 6 41 -5 32 -16
42 -13 42 16 0 14 8 18 35 18 24 0 35 5 35 15 0 12 -18 15 -103 15 l-103 0 3
-77z"/>
<path d="M7418 1273 c2 -47 8 -95 13 -105 10 -19 11 -19 35 3 25 23 32 49 14
49 -5 0 -10 7 -10 15 0 8 5 15 10 15 17 0 11 27 -7 34 -11 5 -13 10 -6 17 8 8
20 6 41 -5 32 -16 42 -13 42 16 0 14 8 18 35 18 24 0 35 5 35 15 0 12 -18 15
-103 15 l-102 0 3 -87z"/>
<path d="M8310 1160 c0 -16 4 -30 9 -30 13 0 21 27 15 45 -10 25 -24 17 -24
-15z"/>
<path d="M4166 1122 c-3 -6 -1 -14 5 -17 15 -10 25 3 12 16 -7 7 -13 7 -17 1z"/>
<path d="M6730 1115 c-23 -12 -23 -14 -7 -21 22 -8 71 12 62 26 -8 13 -25 12
-55 -5z"/>
<path d="M1280 1050 c0 -11 7 -20 15 -20 8 0 15 9 15 20 0 11 -7 20 -15 20 -8
0 -15 -9 -15 -20z"/>
<path d="M2910 879 c-173 -3 -688 -5 -1145 -4 -456 1 -859 -1 -893 -6 -69 -8
-92 -23 -143 -93 -22 -30 -29 -50 -29 -85 0 -39 6 -53 41 -94 23 -26 55 -55
73 -64 29 -15 348 -17 4086 -19 2230 -2 4105 -3 4165 -3 86 0 119 4 150 19 43
20 85 55 85 71 0 5 17 8 38 5 20 -2 27 -1 15 1 -20 4 -21 8 -16 79 6 71 5 75
-16 81 -15 4 -21 12 -19 27 1 11 -2 23 -7 24 -34 12 -46 25 -42 43 6 23 -18
26 -27 4 -5 -13 -10 -14 -28 -4 -16 8 -149 13 -462 16 -646 6 -4749 4 -4831
-2 -38 -3 -207 -2 -375 2 -168 5 -447 5 -620 2z m6343 -109 c4 0 7 -34 7 -75
0 -65 -2 -75 -17 -75 -1609 -3 -8438 2 -8442 5 -5 6 -10 135 -5 145 1 3 7011
3 8457 0z"/>
</g>
</svg>
