<?xml version="1.0" standalone="no"?>
<!DOCTYPE svg PUBLIC "-//W3C//DTD SVG 20010904//EN"
 "http://www.w3.org/TR/2001/REC-SVG-20010904/DTD/svg10.dtd">
<svg version="1.0" xmlns="http://www.w3.org/2000/svg"
 width="339.000000pt" height="199.000000pt" viewBox="0 0 339.000000 199.000000"
 preserveAspectRatio="xMidYMid meet">
<metadata>
Created by potrace 1.10, written by Peter Selinger 2001-2011
</metadata>
<g transform="translate(0.000000,199.000000) scale(0.100000,-0.100000)"
fill="#19e7e7" stroke="none">
<path d="M1755 1840 c-4 -6 -10 -8 -15 -5 -4 3 -14 -3 -21 -13 -13 -15 -12
-16 4 -3 21 16 23 -1 2 -22 -8 -8 -12 -17 -9 -19 2 -3 -4 -26 -15 -52 -11 -25
-21 -50 -22 -54 -3 -13 -11 -37 -19 -57 -5 -11 -16 -43 -26 -72 -10 -29 -21
-50 -26 -47 -4 3 -5 -2 -2 -10 3 -9 -4 -32 -17 -53 -13 -20 -17 -33 -11 -29
16 10 15 -5 -3 -30 -8 -12 -11 -24 -8 -28 3 -3 2 -6 -4 -6 -6 0 -16 -21 -22
-46 -15 -57 4 -95 44 -92 14 1 26 6 26 10 3 18 5 24 16 43 15 29 38 98 35 109
-2 5 3 6 11 3 10 -4 12 3 9 24 -3 18 0 29 8 29 7 0 10 7 6 16 -3 8 -2 12 4 9
5 -3 9 4 9 17 -1 13 8 43 19 68 12 25 22 53 22 63 0 9 4 17 10 17 5 0 6 7 3
17 -4 11 -3 14 5 9 8 -5 10 -1 5 10 -4 11 1 22 12 30 10 8 14 14 7 14 -11 0 0
34 29 92 12 24 12 24 -13 48 -24 22 -43 26 -53 10z m48 -22 c2 -7 -43 -143
-102 -303 -79 -216 -111 -291 -124 -293 -9 -2 -20 3 -23 11 -3 8 40 140 96
293 55 154 103 285 105 292 2 6 13 12 24 12 10 0 21 -6 24 -12z"/>
<path d="M1836 1795 c-9 -26 -7 -32 5 -12 6 10 9 21 6 23 -2 3 -7 -2 -11 -11z"/>
<path d="M1422 1764 c-12 -8 -26 -13 -30 -10 -5 3 -9 -1 -9 -9 0 -8 5 -11 10
-8 6 4 7 1 3 -6 -5 -7 -14 -10 -22 -7 -9 3 -11 0 -7 -11 5 -12 2 -15 -10 -10
-12 4 -14 2 -10 -11 3 -9 3 -14 -1 -10 -5 4 -18 -4 -31 -17 -12 -14 -25 -22
-29 -18 -4 4 -4 0 0 -10 5 -13 2 -16 -10 -11 -12 5 -15 2 -10 -10 3 -9 1 -16
-5 -16 -19 0 -51 -44 -51 -71 0 -15 11 -40 24 -56 12 -15 26 -35 29 -43 4 -11
6 -11 6 -2 1 10 4 10 16 -2 8 -8 15 -20 15 -26 0 -6 5 -8 12 -4 8 5 9 2 4 -12
-4 -10 -4 -15 0 -11 5 4 14 -3 21 -15 7 -13 12 -17 13 -11 0 9 6 8 19 -4 11
-9 18 -20 15 -25 -3 -4 2 -8 12 -8 14 0 15 -2 3 -17 -9 -11 -10 -14 -2 -9 7 4
22 2 34 -4 11 -6 28 -8 37 -4 9 4 20 6 25 6 4 -1 6 1 6 5 -3 20 2 34 10 29 5
-3 8 2 7 12 0 9 -18 30 -38 47 -21 16 -38 33 -38 38 0 4 4 6 8 3 5 -3 9 2 9
10 0 10 -4 11 -11 4 -5 -5 -14 -10 -20 -10 -5 0 -6 3 -3 7 4 3 -6 16 -21 27
-17 13 -27 30 -26 43 1 19 -2 21 -19 12 -12 -7 -17 -7 -13 -1 3 6 0 13 -6 15
-8 3 -6 6 4 6 11 1 15 6 12 16 -5 11 -2 13 10 9 13 -5 15 -2 10 12 -4 11 -3
16 1 12 5 -5 15 1 23 13 8 11 20 18 29 15 11 -5 13 -1 7 16 -6 20 -5 21 10 9
14 -12 16 -12 10 3 -7 18 49 80 61 68 3 -4 2 5 -4 20 -9 24 -8 26 9 23 11 -2
22 0 24 4 3 4 -7 7 -22 6 -15 0 -33 5 -40 12 -18 17 -33 16 -60 -3z m62 -26
c9 -15 -4 -33 -87 -116 l-97 -97 95 -95 c53 -52 94 -101 93 -109 -2 -8 -11
-19 -20 -25 -15 -9 -34 6 -128 99 -67 67 -110 118 -110 130 0 24 209 237 229
233 8 -2 19 -11 25 -20z"/>
<path d="M1433 1345 c0 -8 4 -12 9 -9 5 3 6 10 3 15 -9 13 -12 11 -12 -6z"/>
<path d="M1863 1761 c-30 -25 -29 -38 7 -85 16 -21 27 -43 23 -49 -3 -6 -1 -7
6 -3 6 4 8 13 5 19 -9 16 26 -21 54 -57 12 -15 19 -33 15 -39 -3 -6 -1 -7 6
-3 6 4 8 13 5 19 -4 7 3 2 15 -11 19 -19 21 -26 10 -40 -7 -9 -14 -19 -16 -21
-1 -1 -7 0 -13 4 -8 5 -7 11 2 23 9 12 6 11 -10 -2 -22 -19 -30 -32 -13 -21 5
3 13 1 16 -5 7 -12 -39 -60 -56 -60 -6 0 -7 -4 -4 -10 3 -6 -1 -7 -9 -4 -9 3
-13 10 -10 15 9 15 -3 10 -16 -7 -11 -12 -11 -15 0 -12 7 2 15 -3 18 -11 3
-10 0 -12 -11 -8 -10 4 -14 2 -11 -7 3 -7 -4 -21 -16 -31 -24 -21 -26 -43 -5
-51 8 -4 12 -11 8 -17 -3 -6 -1 -7 5 -3 7 4 12 2 12 -4 0 -16 41 -2 63 21 10
10 25 16 35 13 12 -4 13 -3 4 3 -10 7 -8 14 8 28 11 10 20 15 20 11 0 -4 6 -1
14 6 8 7 14 15 14 18 -1 19 4 23 13 10 8 -12 9 -11 7 5 -2 12 2 19 10 17 8 -1
11 2 7 8 -3 5 5 15 19 21 14 7 23 17 19 22 -4 6 0 8 10 4 11 -4 14 -2 11 7 -3
7 2 19 11 26 18 15 21 35 3 24 -7 -5 -9 -2 -6 8 4 10 -17 38 -62 83 -38 38
-66 73 -63 79 3 6 3 8 -2 4 -7 -7 -35 14 -35 26 0 4 12 4 26 2 26 -5 26 -5 8
15 -17 19 -19 19 -31 3 -12 -17 -15 -16 -41 9 -33 32 -49 33 -79 8z m159 -109
c59 -59 108 -114 108 -122 0 -7 -51 -65 -113 -127 -84 -86 -117 -112 -130
-107 -36 13 -17 48 75 141 l93 93 -93 93 c-101 102 -114 132 -57 136 5 1 58
-48 117 -107z"/>
<path d="M1925 1701 c-3 -5 -2 -12 3 -15 5 -3 9 1 9 9 0 17 -3 19 -12 6z"/>
<path d="M1985 1640 c10 -11 20 -20 23 -20 3 0 -3 9 -13 20 -10 11 -20 20 -23
20 -3 0 3 -9 13 -20z"/>
<path d="M1329 1723 c-13 -16 -12 -17 4 -4 9 7 17 15 17 17 0 8 -8 3 -21 -13z"/>
<path d="M2070 1670 c-9 -6 -10 -10 -3 -10 6 0 15 5 18 10 8 12 4 12 -15 0z"/>
<path d="M2095 1661 c-3 -5 -2 -12 3 -15 5 -3 9 1 9 9 0 17 -3 19 -12 6z"/>
<path d="M2080 1636 c0 -2 8 -10 18 -17 15 -13 16 -12 3 4 -13 16 -21 21 -21
13z"/>
<path d="M2076 1382 l-19 -27 24 22 c12 12 21 24 18 27 -2 2 -13 -8 -23 -22z"/>
<path d="M1522 1042 c-7 -5 -30 -8 -52 -7 -23 1 -36 -3 -33 -8 3 -5 -5 -19
-18 -29 -13 -11 -17 -16 -9 -12 10 5 9 0 -4 -14 -10 -12 -23 -19 -27 -16 -5 3
-6 -2 -3 -10 3 -9 2 -16 -2 -16 -19 0 -14 -72 6 -97 11 -14 17 -29 14 -34 -3
-5 0 -8 7 -7 6 2 14 -3 17 -11 3 -9 0 -11 -8 -6 -9 6 -11 4 -6 -4 5 -7 10 -10
13 -7 10 10 44 -15 37 -26 -4 -7 -3 -8 4 -4 7 4 12 3 12 -2 0 -5 17 -14 37
-20 35 -11 40 -10 60 13 14 14 19 26 13 30 -6 4 -8 11 -5 16 4 5 1 9 -5 9 -6
0 -8 5 -4 13 6 9 4 9 -7 1 -33 -27 -98 33 -84 77 10 32 45 58 78 59 27 0 67
-30 67 -51 0 -26 -24 -88 -31 -83 -5 3 -9 0 -9 -5 0 -6 4 -11 9 -11 5 0 7 -23
5 -50 -2 -29 1 -48 6 -45 11 7 32 -30 22 -39 -3 -4 1 -4 11 0 9 3 17 1 17 -4
0 -16 43 -5 58 15 14 20 16 69 2 78 -17 10 -11 25 10 25 12 0 25 -10 31 -23 6
-13 20 -29 31 -36 15 -9 18 -10 13 0 -5 8 -4 10 3 5 7 -4 12 -13 12 -20 0 -11
34 -14 112 -7 9 0 31 13 49 29 18 15 35 26 38 25 3 -1 5 5 3 13 -2 8 2 14 8
14 6 0 9 -4 6 -9 -3 -4 3 -16 14 -26 11 -10 17 -22 13 -28 -3 -6 -1 -7 5 -3 7
4 12 3 12 -2 0 -11 6 -12 108 -18 61 -3 91 -1 113 10 29 15 73 11 63 -6 -3 -5
6 -6 21 -2 18 4 30 2 36 -7 5 -8 9 -9 9 -4 0 6 18 9 43 7 32 -3 48 1 66 17 13
12 21 21 16 21 -4 0 -2 7 5 15 7 8 16 13 20 10 5 -3 12 0 16 6 5 8 3 9 -7 4
-8 -4 4 8 26 28 22 20 35 36 28 37 -6 0 -10 13 -9 30 2 21 -1 27 -10 19 -14
-11 -28 16 -17 34 3 7 3 9 -1 5 -5 -4 -20 -2 -35 4 -14 6 -45 10 -68 9 -23 -1
-45 4 -49 10 -4 8 9 10 42 8 78 -5 140 40 113 82 -5 8 -9 10 -9 4 0 -5 -5 -2
-11 8 -9 16 -23 18 -102 16 -64 -1 -97 -6 -108 -16 -15 -12 -22 -12 -54 1 -25
11 -69 16 -133 16 -85 0 -98 -3 -119 -22 -21 -20 -24 -20 -36 -5 -6 9 -28 20
-47 23 -19 4 -32 3 -28 -1 4 -4 1 -13 -7 -19 -10 -8 -15 -38 -16 -106 -2 -66
-7 -100 -18 -112 -15 -20 -36 -25 -25 -7 5 8 1 8 -14 0 -25 -13 -39 2 -37 41
0 15 -2 25 -5 23 -3 -2 -5 25 -5 60 0 35 3 61 8 58 4 -2 7 0 7 6 0 5 -5 13
-11 16 -6 4 -8 13 -6 19 3 7 0 13 -6 14 -7 0 -22 3 -35 6 -13 3 -20 1 -17 -5
4 -5 1 -9 -6 -9 -7 0 -9 -3 -6 -7 4 -3 2 -12 -4 -20 -9 -9 -8 -13 0 -13 6 0
11 -5 11 -11 0 -5 -3 -8 -7 -6 -5 3 -6 -20 -5 -50 4 -61 -11 -67 -22 -8 -4 19
-18 46 -31 60 -28 27 -32 37 -11 29 8 -3 17 -1 21 5 4 7 0 8 -11 4 -13 -5 -15
-3 -9 8 6 11 5 11 -5 2 -14 -13 -43 -6 -34 8 3 5 2 9 -3 8 -4 -1 -10 -1 -13 1
-3 1 -17 3 -32 5 -16 2 -36 6 -45 9 -10 3 -24 2 -31 -2z m117 -51 c38 -28 71
-89 71 -133 0 -19 -9 -51 -20 -72 -18 -36 -18 -41 -3 -66 36 -62 -20 -84 -58
-24 -20 34 -21 38 -6 49 12 9 13 15 5 23 -9 9 -8 18 2 37 48 90 -40 186 -128
141 -38 -20 -52 -44 -52 -89 0 -46 32 -85 76 -93 40 -7 41 -30 1 -27 -63 5
-114 75 -102 139 21 116 181 141 230 37 16 -34 16 -64 0 -123 l-6 -25 15 25
c8 14 15 46 16 72 1 139 -191 182 -255 58 -8 -16 -15 -38 -15 -49 0 -11 -5
-23 -11 -27 -9 -5 -10 6 -7 40 6 53 41 98 93 122 42 20 115 12 154 -15z m161
-76 c0 -99 2 -107 25 -130 30 -31 71 -32 102 -3 21 20 23 30 23 119 0 85 2
100 18 108 33 18 42 -6 42 -113 0 -114 -9 -140 -59 -173 -43 -29 -102 -30
-146 -3 -46 29 -82 108 -55 125 5 3 14 -12 19 -33 20 -74 95 -111 159 -78 49
26 62 61 60 168 l-1 93 -6 -95 c-4 -52 -12 -105 -19 -117 -35 -62 -142 -60
-171 4 -14 30 -15 233 -1 233 6 0 10 -42 10 -105z m491 89 c9 -11 10 -20 2
-32 -8 -13 -28 -17 -92 -18 -84 -2 -106 -8 -81 -24 8 -5 11 -12 7 -17 -9 -8
-39 8 -44 23 -9 28 19 39 109 45 l93 5 -92 2 c-97 2 -123 -8 -123 -48 0 -33
35 -48 102 -44 63 4 98 -11 98 -42 0 -22 -22 -29 -104 -34 -90 -6 -109 -19
-88 -64 11 -26 13 -26 117 -26 87 0 105 -3 105 -15 0 -12 -18 -15 -99 -15 -84
0 -102 3 -125 21 -19 15 -26 30 -26 54 0 53 36 75 121 75 39 0 69 4 69 10 0 6
-31 10 -73 10 -87 0 -117 19 -117 74 0 58 31 74 146 75 63 1 85 -3 95 -15z
m275 2 c15 -12 17 -18 8 -33 -9 -14 -25 -18 -77 -19 -83 -2 -99 -8 -95 -36 3
-21 10 -23 75 -28 58 -4 76 -10 97 -29 26 -24 37 -81 16 -81 -5 0 -10 9 -10
19 0 10 -8 29 -18 41 -15 19 -31 23 -93 27 -75 5 -99 18 -99 53 0 40 26 55
107 61 l78 6 -76 1 c-63 2 -79 -1 -97 -18 -12 -12 -22 -30 -22 -40 0 -11 -7
-20 -15 -20 -19 0 -19 2 0 46 9 22 26 40 47 49 44 19 148 19 174 1z m-226 -6
c0 -5 -7 -7 -15 -4 -8 4 -15 8 -15 10 0 2 7 4 15 4 8 0 15 -4 15 -10z m-37
-80 c21 0 84 -64 82 -83 -2 -10 1 -14 8 -10 6 4 8 0 4 -10 -3 -9 -1 -19 5 -23
6 -4 8 -3 5 3 -4 7 10 9 41 6 68 -7 74 -11 17 -13 -27 -1 -60 -3 -72 -4 -12
-1 -20 1 -17 5 2 4 0 11 -6 14 -6 4 -9 1 -8 -7 2 -7 -5 -12 -14 -12 -10 1 -14
-4 -11 -12 3 -8 -1 -14 -11 -14 -9 0 -16 -5 -16 -11 0 -5 5 -7 10 -4 6 3 10 1
10 -5 0 -7 -6 -10 -12 -7 -7 2 -13 13 -13 25 0 12 -6 26 -13 32 -8 7 -9 7 -3
-1 5 -6 7 -18 4 -25 -6 -17 -33 -19 -33 -3 0 8 -5 8 -15 -1 -9 -7 -15 -8 -15
-2 0 13 29 24 43 15 9 -5 9 -3 0 8 -9 11 -8 20 2 39 18 31 19 52 3 68 -18 18
-19 45 -1 38 8 -3 20 -6 26 -6z m-239 -46 c14 -5 14 -8 0 -21 -16 -16 -27 -12
-30 12 -2 16 5 18 30 9z m493 -50 c15 -24 15 -29 2 -53 -14 -24 -21 -26 -104
-32 l-90 -5 78 -2 c62 -2 77 -5 77 -17 0 -13 -14 -15 -82 -13 -81 3 -83 4 -83
28 0 24 3 25 70 28 100 3 115 8 115 36 0 28 -16 36 -76 36 -24 0 -44 5 -44 10
0 6 27 10 60 10 53 0 61 -3 77 -26z m-320 -26 c-2 -9 -25 -13 -65 -13 -41 0
-62 -4 -62 -12 0 -6 6 -13 13 -16 6 -2 9 -8 5 -12 -10 -11 -37 2 -44 20 -12
31 15 45 88 45 51 0 69 -3 65 -12z"/>
<path d="M1650 710 c6 -11 15 -20 20 -20 6 0 5 9 -2 20 -7 11 -16 20 -21 20
-4 0 -3 -9 3 -20z"/>
<path d="M369 1034 c-1 -2 -2 -10 -3 -16 0 -7 -13 -13 -27 -14 -14 -1 -32 -5
-39 -9 -8 -5 -11 -4 -7 2 3 5 0 10 -7 10 -10 0 -14 -25 -16 -101 -4 -158 -2
-208 11 -201 3 3 12 -2 19 -10 7 -8 21 -15 31 -15 13 0 17 -5 12 -17 -6 -17
-6 -17 9 -2 12 12 30 15 62 13 26 -2 46 1 46 6 0 6 5 10 11 10 5 0 7 -4 4 -10
-16 -26 26 4 89 65 12 11 20 18 19 16 -2 -2 5 -10 15 -18 9 -8 11 -12 5 -8 -9
4 -11 1 -7 -9 3 -9 10 -13 15 -10 5 3 9 1 9 -5 0 -5 10 -13 21 -16 13 -4 17
-10 11 -14 -6 -3 26 -7 71 -8 152 -4 158 -5 144 -22 -11 -14 -10 -14 5 -2 23
17 13 34 -15 26 -21 -6 -21 -5 -3 6 14 8 24 9 36 1 15 -9 17 -6 13 26 -4 38
-13 57 -13 28 0 -16 -1 -16 -16 -2 -14 14 -50 22 -79 17 -5 -1 1 9 15 22 14
13 30 22 35 19 6 -3 3 3 -5 13 -13 17 -13 18 1 13 13 -5 16 1 14 35 -3 49 9
77 33 77 15 -1 15 -3 -3 -17 -15 -12 -16 -14 -3 -10 9 3 19 0 22 -9 3 -8 2
-13 -2 -10 -4 2 -8 -5 -9 -17 0 -12 1 -16 4 -9 10 26 23 10 20 -23 -3 -20 -1
-38 3 -40 5 -3 7 6 6 20 -5 37 11 21 18 -20 4 -19 6 -37 6 -41 -1 -3 10 -16
24 -29 13 -12 22 -26 18 -31 -4 -4 -1 -4 6 0 17 10 44 -13 38 -31 -4 -8 -1
-11 5 -8 6 4 8 12 6 19 -5 13 43 14 64 1 8 -6 10 -4 4 5 -6 10 -4 12 8 7 9 -3
19 -1 23 5 4 7 3 8 -4 4 -18 -11 -14 9 8 49 11 20 20 42 20 50 0 8 5 15 11 15
6 0 9 7 5 15 -3 8 -1 15 5 15 6 0 8 7 5 16 -4 11 -2 15 7 11 9 -3 13 2 12 16
-1 12 0 27 4 32 3 6 6 12 7 15 0 3 6 18 12 33 15 36 15 54 0 64 -17 10 -58 11
-52 1 3 -4 0 -8 -6 -8 -6 0 -8 -5 -4 -12 5 -8 1 -9 -12 -4 -15 6 -17 5 -6 -5
14 -15 17 -33 3 -25 -4 3 -8 -2 -8 -12 1 -23 -24 -73 -33 -67 -4 3 -13 -2 -20
-10 -7 -8 -16 -12 -21 -9 -5 3 -6 -2 -3 -10 3 -9 1 -16 -5 -16 -6 0 -8 -6 -5
-14 3 -8 1 -17 -5 -21 -7 -4 -8 0 -4 11 5 13 3 15 -7 9 -10 -6 -12 -4 -7 9 4
10 1 19 -7 22 -7 3 -13 11 -13 20 0 18 -45 117 -57 125 -5 4 -6 11 -3 15 8 13
-55 15 -70 2 -10 -8 -17 -8 -25 0 -18 18 -213 16 -231 -3 -8 -8 -18 -11 -21
-7 -4 3 -9 -4 -13 -16 -3 -12 -9 -22 -14 -22 -5 0 -6 -6 -3 -14 3 -8 1 -17 -5
-21 -14 -8 -14 28 -1 41 7 7 6 11 -4 11 -8 0 -13 -4 -10 -9 14 -22 -48 12 -76
42 -6 6 -119 9 -121 4z m21 -14 c0 -5 -2 -10 -4 -10 -3 0 -8 5 -11 10 -3 6 -1
10 4 10 6 0 11 -4 11 -10z m128 -39 c82 -58 81 -183 -3 -246 -31 -24 -48 -29
-114 -33 -109 -6 -111 -4 -111 154 0 163 18 165 22 2 l3 -123 72 -3 c93 -4
127 13 154 74 16 36 18 50 10 82 -15 54 -72 102 -120 102 -20 0 -27 10 -15 22
9 10 71 -9 102 -31z m337 25 c16 -12 18 -18 9 -33 -9 -15 -29 -19 -105 -23
-61 -4 -88 -8 -76 -14 23 -11 22 -26 -2 -26 -11 0 -23 9 -26 20 -12 38 11 49
103 53 l87 3 -90 2 c-97 2 -115 -5 -115 -43 0 -39 29 -54 92 -48 62 5 98 -8
98 -35 0 -32 -22 -42 -95 -42 -75 0 -95 -9 -95 -45 0 -38 19 -45 127 -45 85 0
103 -3 103 -15 0 -12 -17 -15 -94 -15 -52 0 -106 4 -121 10 -53 20 -53 104 1
129 14 6 54 11 89 11 37 0 65 4 65 10 0 6 -32 10 -75 10 -67 0 -79 3 -100 25
-29 28 -31 51 -9 83 22 32 47 39 134 41 53 1 82 -3 95 -13z m78 8 c8 -3 36
-58 62 -122 27 -64 52 -121 56 -126 5 -5 20 15 34 47 13 31 29 57 35 57 14 0
13 -9 -12 -67 -24 -55 -51 -74 -73 -52 -7 8 -34 65 -60 127 -26 62 -50 111
-52 108 -6 -6 83 -224 99 -243 15 -19 52 -16 70 5 9 9 32 58 51 107 61 154 68
168 78 158 13 -13 -95 -272 -122 -295 -55 -46 -93 -10 -158 147 -43 102 -51
128 -41 140 14 17 13 17 33 9z m-457 -50 c84 -40 86 -167 3 -210 -32 -16 -69
-19 -69 -4 0 6 7 10 16 10 26 0 71 31 83 57 18 39 13 71 -16 103 -24 27 -35
31 -86 33 l-57 2 0 -107 c0 -66 -4 -108 -10 -108 -6 0 -10 47 -10 120 l0 120
56 0 c31 0 71 -7 90 -16z m388 -39 c-19 -19 -29 -23 -42 -16 -14 8 -11 12 18
24 49 22 52 20 24 -8z m-401 -10 c9 -4 17 -13 17 -21 0 -8 6 -14 13 -14 8 0 7
-4 -3 -10 -10 -6 -11 -10 -2 -10 19 0 14 -25 -10 -47 -15 -13 -35 -20 -55 -18
-18 1 -30 -2 -27 -7 3 -5 11 -5 17 -2 7 4 4 -1 -5 -11 -10 -11 -20 -16 -23
-13 -5 5 -9 115 -6 156 1 13 50 12 84 -3z m162 -45 c-6 12 -5 13 5 3 10 -9 10
-15 -2 -27 -18 -17 -28 -11 -28 17 0 17 2 18 17 6 15 -12 16 -12 8 1z m182
-72 c-2 -8 -26 -14 -63 -14 -80 -2 -82 -3 -60 -19 22 -16 16 -31 -9 -21 -22 8
-29 34 -15 51 16 20 154 22 147 3z"/>
<path d="M2045 1029 c-4 -6 -5 -12 -2 -15 2 -3 7 2 10 11 7 17 1 20 -8 4z"/>
<path d="M2654 1026 l-31 -11 23 -20 c21 -18 22 -21 6 -36 -9 -9 -21 -14 -27
-11 -5 3 -3 -3 6 -14 9 -10 15 -25 13 -32 -1 -7 0 -8 3 -2 2 5 10 7 16 3 14
-9 27 -12 81 -19 68 -9 73 -16 82 -101 4 -43 8 -87 7 -99 0 -12 8 -26 18 -32
15 -10 20 -8 28 7 6 10 7 21 3 25 -3 4 2 4 12 0 15 -6 17 -4 10 7 -13 21 -14
39 -1 39 8 0 7 3 -2 9 -10 6 -10 10 -1 16 9 6 9 10 -1 16 -8 5 -9 9 -4 9 6 0
10 20 9 45 -1 44 0 45 35 52 20 4 45 7 56 8 11 0 26 6 34 13 10 10 16 10 30 0
9 -7 13 -9 9 -4 -4 5 0 15 8 23 13 14 13 18 0 38 -11 16 -12 25 -4 33 9 9 7
17 -7 32 -15 16 -29 20 -67 19 -30 -2 -49 -8 -53 -17 -4 -12 -8 -12 -20 -2
-13 11 -14 10 -9 -4 4 -10 1 -16 -9 -16 -8 0 -17 4 -19 9 -1 6 -15 12 -31 15
-15 3 -25 1 -22 -4 3 -4 -1 -10 -8 -13 -16 -6 -60 11 -53 21 8 13 -85 12 -120
-2z m117 -30 c30 -14 48 -25 40 -25 -8 -1 -11 -4 -8 -8 4 -3 16 3 27 15 24 26
46 28 58 7 7 -14 15 -13 63 9 56 27 94 33 104 17 3 -5 -8 -18 -25 -27 l-30
-18 33 -11 c17 -5 32 -14 32 -19 0 -12 -114 -38 -143 -33 -31 6 -38 -14 -47
-138 -6 -94 -10 -114 -19 -104 -2 2 -6 49 -9 105 -7 103 -18 156 -30 137 -5
-8 -27 -7 -74 4 -99 21 -100 21 -77 37 10 8 28 15 39 18 17 3 16 6 -12 23 -23
13 -29 21 -20 27 20 13 42 9 98 -16z"/>
<path d="M2715 985 c32 -27 60 -32 71 -13 4 7 3 8 -5 4 -6 -4 -24 2 -40 13
-41 29 -62 25 -26 -4z"/>
<path d="M2982 990 c-18 -11 -37 -18 -41 -16 -4 3 -13 1 -20 -3 -7 -5 0 -8 19
-9 26 -1 100 32 100 44 0 10 -28 2 -58 -16z"/>
<path d="M2848 968 c9 -9 15 -9 24 0 9 9 7 12 -12 12 -19 0 -21 -3 -12 -12z"/>
<path d="M2686 942 c-3 -5 23 -14 57 -20 57 -11 63 -10 82 8 19 20 19 20 -57
20 -42 0 -79 -4 -82 -8z"/>
<path d="M2877 943 c-4 -3 -7 -22 -6 -42 l1 -36 8 29 c5 16 6 34 3 40 -4 6 3
3 14 -7 18 -16 26 -16 86 -5 38 7 61 16 54 20 -15 9 -151 11 -160 1z"/>
<path d="M2843 924 c-3 -8 -1 -25 5 -37 10 -20 11 -18 11 16 1 39 -5 48 -16
21z"/>
<path d="M2857 823 c8 -52 13 -54 13 -5 0 23 -4 42 -9 42 -6 0 -7 -17 -4 -37z"/>
<path d="M2805 1031 c-3 -5 -2 -12 3 -15 5 -3 9 1 9 9 0 17 -3 19 -12 6z"/>
<path d="M520 1021 c0 -6 4 -13 10 -16 6 -3 7 1 4 9 -7 18 -14 21 -14 7z"/>
<path d="M1407 1019 c7 -7 15 -10 18 -7 3 3 -2 9 -12 12 -14 6 -15 5 -6 -5z"/>
<path d="M1016 947 c3 -10 9 -15 12 -12 3 3 0 11 -7 18 -10 9 -11 8 -5 -6z"/>
<path d="M1570 910 c8 -5 20 -10 25 -10 6 0 3 5 -5 10 -8 5 -19 10 -25 10 -5
0 -3 -5 5 -10z"/>
<path d="M1847 821 c-4 -17 -3 -21 5 -13 5 5 8 16 6 23 -3 8 -7 3 -11 -10z"/>
<path d="M857 759 c7 -7 15 -10 18 -7 3 3 -2 9 -12 12 -14 6 -15 5 -6 -5z"/>
<path d="M280 681 c0 -6 4 -13 10 -16 6 -3 7 1 4 9 -7 18 -14 21 -14 7z"/>
<path d="M1005 682 c-10 -7 -18 -32 -10 -32 2 0 9 9 15 20 12 22 11 24 -5 12z"/>
<path d="M495 659 c-4 -6 -5 -12 -2 -15 2 -3 7 2 10 11 7 17 1 20 -8 4z"/>
<path d="M1895 660 c-3 -6 1 -7 9 -4 18 7 21 14 7 14 -6 0 -13 -4 -16 -10z"/>
<path d="M2052 661 c-11 -6 -10 -10 4 -15 9 -3 19 -4 22 -1 3 3 -1 5 -9 5 -11
0 -11 2 1 10 8 5 11 10 5 10 -5 0 -16 -4 -23 -9z"/>
<path d="M2520 656 c0 -2 7 -7 16 -10 8 -3 12 -2 9 4 -6 10 -25 14 -25 6z"/>
<path d="M388 569 c-10 -5 -18 -17 -18 -24 0 -8 -4 -15 -9 -15 -5 0 -12 -7
-15 -16 -6 -15 -4 -15 10 -3 15 12 16 11 10 -9 -3 -12 -9 -32 -12 -43 -4 -13
-2 -19 4 -15 6 4 8 -2 5 -15 -4 -16 -8 -17 -14 -7 -5 7 -9 8 -9 3 0 -14 59
-65 75 -65 7 0 15 -3 18 -7 2 -5 2 -2 1 5 -4 13 12 17 19 5 2 -5 2 -2 0 6 -2
7 2 11 10 8 9 -3 13 7 13 38 1 34 -2 42 -14 37 -11 -4 -13 -1 -8 9 4 8 -2 3
-13 -11 -11 -14 -21 -29 -21 -35 0 -5 -5 -3 -10 5 -6 10 -4 22 6 39 9 13 11
21 6 17 -18 -11 -22 10 -6 30 12 15 15 16 11 2 -7 -20 28 -31 42 -14 14 17 5
58 -16 74 -20 14 -42 15 -65 1z m60 -21 c7 -7 12 -21 11 -32 0 -17 -2 -16 -11
7 -10 29 -27 34 -46 15 -17 -17 -15 -123 3 -138 17 -14 33 -6 45 24 8 20 9 20
9 1 1 -32 -14 -47 -45 -43 -29 3 -29 4 -32 77 -2 41 -1 80 2 88 7 16 48 17 64
1z"/>
<path d="M592 555 c-13 -15 -17 -25 -9 -25 6 0 4 -5 -6 -11 -12 -7 -15 -15 -9
-22 5 -7 8 -29 7 -49 -3 -38 27 -94 45 -83 5 3 11 -1 13 -7 4 -10 6 -9 6 1 1
11 4 11 18 0 11 -10 14 -10 9 -1 -4 6 -3 12 2 12 5 0 18 8 28 18 14 13 19 31
19 74 0 35 -4 54 -10 50 -5 -3 -4 2 4 11 9 12 10 17 2 17 -7 0 -9 5 -5 13 4 6
4 9 -1 5 -4 -4 -14 -1 -22 7 -23 23 -67 18 -91 -10z m86 -7 c16 -16 16 -140 0
-156 -21 -21 -66 -15 -74 11 -11 31 -6 128 7 144 14 16 51 17 67 1z"/>
<path d="M621 536 c-19 -22 -10 -126 11 -140 26 -16 41 5 44 65 5 76 -23 113
-55 75z m34 -30 c-2 -14 -6 -30 -11 -37 -5 -8 -3 -9 6 -4 10 6 12 4 7 -9 -4
-10 -7 -22 -7 -27 0 -5 -5 -9 -11 -9 -6 0 -9 7 -5 15 3 8 2 15 -2 15 -14 0 -7
65 8 72 8 4 16 7 16 7 1 1 0 -10 -1 -23z"/>
<path d="M818 565 c-10 -7 -14 -35 -14 -100 1 -82 3 -90 21 -93 11 -2 26 -11
34 -20 13 -16 13 -15 7 2 -4 13 -2 17 8 13 25 -10 64 39 60 74 -2 17 -6 35 -9
40 -4 5 -1 9 6 9 8 0 7 5 -2 17 -11 13 -11 17 -1 21 9 3 6 10 -9 23 -12 10
-25 19 -28 20 -36 5 -62 3 -73 -6z m80 -17 c7 -7 12 -39 12 -74 0 -71 -15 -94
-61 -94 l-29 0 0 90 0 90 33 0 c18 0 38 -5 45 -12z"/>
<path d="M839 543 c-1 -4 -2 -38 -3 -75 -1 -67 -1 -68 25 -68 19 0 28 6 32 23
6 23 3 105 -4 111 -11 9 -49 16 -50 9z m30 -34 c-8 -5 -9 -9 -4 -9 6 0 9 -17
7 -40 -2 -22 -9 -40 -14 -40 -8 0 -7 50 2 108 0 2 5 0 11 -4 8 -4 7 -9 -2 -15z"/>
<path d="M1032 568 c-8 -8 -12 -45 -12 -99 0 -81 2 -88 21 -94 17 -6 19 -9 8
-16 -19 -12 -6 -11 25 1 16 6 35 6 51 0 19 -7 23 -6 18 6 -4 10 -1 12 13 7 14
-5 13 -2 -4 15 -12 12 -22 27 -22 32 0 7 -6 7 -19 1 -14 -8 -22 -7 -31 4 -7 8
-11 15 -9 16 2 0 17 2 33 4 55 7 52 55 -3 55 -25 1 -25 1 -7 15 10 8 23 12 27
9 14 -8 29 32 17 44 -16 16 -91 15 -106 0z m98 -18 c0 -5 -16 -10 -35 -10 -32
0 -35 -2 -35 -30 0 -28 3 -30 35 -30 19 0 35 -5 35 -11 0 -6 -14 -9 -35 -6
-34 5 -35 4 -35 -29 0 -32 2 -34 35 -34 19 0 35 -4 35 -10 0 -5 -20 -10 -45
-10 l-45 0 0 90 0 90 45 0 c25 0 45 -4 45 -10z"/>
<path d="M1420 566 c-6 -8 -18 -12 -25 -10 -8 3 -18 -5 -25 -18 -10 -21 -10
-21 3 -5 8 9 16 17 18 17 2 0 4 -25 5 -56 0 -49 -1 -54 -13 -38 -18 25 -16 3
3 -24 8 -12 12 -22 8 -22 -4 0 4 -13 19 -28 15 -16 24 -31 20 -35 -3 -4 -1 -7
5 -7 7 0 12 7 12 15 0 8 5 15 10 15 6 0 10 -4 10 -8 0 -4 8 -8 19 -8 12 0 17
5 13 15 -4 10 -1 12 9 6 8 -4 11 -5 7 -1 -3 4 -2 21 4 37 9 27 7 32 -28 64
-33 31 -58 75 -33 59 5 -3 7 -9 5 -13 -3 -4 9 -8 25 -9 23 -2 29 2 29 17 0 40
-74 67 -100 37z m78 -28 c2 -10 -1 -18 -7 -18 -6 0 -11 7 -11 16 0 10 -7 14
-22 12 -32 -4 -39 -58 -9 -58 12 0 21 -4 21 -10 0 -14 -33 -13 -48 2 -16 16
-15 51 0 66 19 19 72 11 76 -10z m-68 -102 c0 -39 11 -50 41 -41 16 5 19 12
15 31 -4 13 -2 24 3 24 17 0 21 -18 11 -44 -7 -20 -17 -26 -38 -26 -15 0 -33
5 -40 12 -14 14 -16 78 -2 78 6 0 10 -15 10 -34z m40 -8 c0 -4 -4 -8 -9 -8 -6
0 -12 4 -15 8 -3 5 1 9 9 9 8 0 15 -4 15 -9z"/>
<path d="M1804 565 c-4 -8 -9 -13 -13 -10 -4 2 -7 -6 -6 -18 3 -31 -5 -48 -19
-40 -6 3 -6 1 2 -8 6 -7 12 -29 12 -49 0 -20 -6 -42 -12 -49 -11 -10 -10 -11
3 -6 9 3 23 0 30 -7 18 -18 60 -18 78 0 7 7 19 11 25 9 7 -3 12 6 11 23 0 16
-5 26 -11 23 -11 -4 -15 9 -14 47 0 43 5 58 15 53 5 -3 -3 6 -19 21 -32 29
-73 34 -82 11z m72 -55 c0 -25 2 -49 4 -55 2 -5 1 -25 -3 -42 -5 -28 -11 -33
-36 -33 -35 0 -41 13 -41 94 0 69 12 88 50 84 22 -3 25 -8 26 -48z"/>
<path d="M1822 538 c-18 -18 -15 -123 3 -138 18 -15 40 -1 48 30 7 27 -9 25
-25 -2 -12 -22 -13 -22 -18 12 -3 19 -1 41 4 49 9 12 8 13 -3 6 -10 -5 -12 -4
-7 4 6 9 11 9 22 0 19 -15 31 15 14 36 -15 18 -22 19 -38 3z m33 -19 c11 -16
1 -19 -13 -3 -7 8 -8 14 -3 14 5 0 13 -5 16 -11z"/>
<path d="M2034 570 c-30 -12 -37 -36 -35 -110 4 -81 27 -113 75 -99 39 11 39
11 30 -3 -5 -9 -2 -9 9 1 14 11 20 11 35 0 15 -13 16 -12 3 4 -8 10 -20 16
-28 13 -16 -7 -16 2 1 33 9 16 11 34 6 52 -5 15 -4 31 1 36 5 5 1 23 -10 43
-19 37 -48 47 -87 30z m64 -22 c7 -7 12 -40 12 -78 0 -73 -10 -90 -51 -90 -33
0 -40 16 -40 101 -1 65 8 79 47 79 11 0 25 -5 32 -12z"/>
<path d="M2041 536 c-19 -23 -10 -127 12 -140 27 -16 48 18 46 74 -3 72 -29
101 -58 66z m33 -21 c3 -8 0 -15 -7 -15 -7 0 -6 -4 3 -10 13 -8 13 -13 2 -31
-8 -11 -9 -18 -3 -14 13 8 14 -5 2 -24 -8 -12 -11 -9 -16 12 -4 15 -5 33 -2
40 3 8 1 20 -3 27 -9 15 -4 30 10 30 4 0 10 -7 14 -15z"/>
<path d="M2233 564 c-19 -13 -19 -172 -1 -191 19 -18 40 0 42 36 0 21 5 30 13
26 7 -2 13 0 13 4 0 5 8 7 19 4 25 -6 32 27 9 49 -9 10 -20 13 -23 8 -8 -13
-37 0 -32 14 2 6 17 11 33 11 22 1 30 6 32 23 2 13 -2 23 -10 24 -44 5 -83 2
-95 -8z m97 -17 c0 -9 -12 -11 -40 -9 -39 4 -40 3 -40 -27 0 -30 2 -31 40 -31
26 0 40 -5 40 -13 0 -9 -12 -11 -41 -9 l-42 4 6 -41 c3 -22 1 -41 -4 -41 -5 0
-9 41 -9 90 l0 90 45 0 c30 0 45 -4 45 -13z"/>
<path d="M2451 567 c-6 -8 -8 -17 -4 -20 3 -4 2 -7 -3 -7 -5 0 -9 -36 -8 -81
0 -77 8 -98 37 -99 11 0 25 42 21 63 -2 13 1 17 11 13 8 -3 15 -1 15 3 0 5 8
7 19 4 25 -6 32 27 9 49 -9 10 -20 13 -23 8 -8 -13 -37 0 -32 14 2 6 17 11 33
11 32 1 47 31 22 46 -21 13 -84 10 -97 -4z m99 -20 c0 -9 -12 -11 -40 -9 -39
4 -40 3 -40 -27 0 -30 2 -31 40 -31 26 0 40 -5 40 -13 0 -9 -12 -11 -41 -9
l-42 4 6 -41 c3 -22 1 -41 -4 -41 -5 0 -9 41 -9 90 l0 90 45 0 c30 0 45 -4 45
-13z"/>
<path d="M2669 563 c-20 -24 -21 -169 -2 -189 21 -20 92 -14 107 9 13 21 -6
37 -35 32 -17 -4 -33 18 -22 29 11 11 24 6 17 -6 -6 -10 -5 -10 8 -1 8 7 18
10 21 6 4 -3 8 -2 8 3 5 35 6 54 1 50 -2 -3 -13 -1 -23 5 -14 7 -19 6 -19 -3
0 -9 -3 -9 -10 2 -15 22 -12 29 10 27 11 -1 20 -5 20 -10 0 -4 6 -2 14 5 14
14 15 25 3 46 -12 18 -82 15 -98 -5z m96 -13 c-3 -5 -22 -10 -41 -10 -31 0
-34 -2 -34 -30 0 -28 2 -30 41 -30 22 0 38 -4 35 -9 -3 -4 -21 -7 -41 -4 -34
3 -35 3 -35 -32 0 -34 1 -35 40 -35 22 0 40 -4 40 -10 0 -5 -22 -10 -50 -10
l-50 0 0 90 0 90 51 0 c31 0 48 -4 44 -10z"/>
<path d="M2885 563 c-12 -22 -14 -178 -2 -190 13 -12 101 -12 113 1 7 8 6 19
-3 36 -7 14 -13 18 -13 10 0 -13 -1 -13 -10 0 -8 12 -12 13 -19 2 -6 -11 -10
-10 -15 3 -9 26 -8 28 18 23 25 -5 55 26 36 37 -15 9 -12 34 5 52 14 14 14 17
-2 29 -27 20 -96 18 -108 -3z m105 -13 c0 -5 -18 -10 -40 -10 -38 0 -40 -2
-40 -30 0 -28 3 -30 35 -30 19 0 35 -4 35 -9 0 -6 -16 -7 -35 -4 -35 6 -35 5
-35 -31 0 -34 2 -36 34 -36 19 0 38 -4 41 -10 4 -6 -13 -10 -44 -10 l-51 0 0
90 0 90 50 0 c28 0 50 -4 50 -10z m-20 -34 c0 -8 -10 -13 -25 -13 -14 0 -25 4
-25 9 0 5 4 7 8 4 4 -2 14 -1 22 5 19 12 20 11 20 -5z"/>
<path d="M942 521 c-11 -7 -11 -9 0 -14 9 -3 15 1 15 9 0 8 -1 14 -1 14 -1 0
-7 -4 -14 -9z"/>
<path d="M1909 518 c-6 -20 -6 -39 0 -42 4 -3 7 6 7 20 0 20 -4 32 -7 22z"/>
<path d="M1503 485 c0 -8 4 -12 9 -9 5 3 6 10 3 15 -9 13 -12 11 -12 -6z"/>
<path d="M203 473 c-81 -8 -80 -58 2 -65 24 -1 42 -1 39 1 -2 2 4 10 14 18 16
12 16 14 0 26 -10 8 -15 17 -11 20 3 4 4 6 2 5 -2 -1 -23 -3 -46 -5z m47 -33
c0 -5 -20 -10 -45 -10 -25 0 -45 5 -45 10 0 6 20 10 45 10 25 0 45 -4 45 -10z"/>
<path d="M3178 475 c-3 -4 -20 -7 -37 -7 -19 -1 -36 -8 -41 -18 -14 -26 12
-44 55 -37 20 3 33 2 31 -2 -3 -4 1 -8 9 -8 8 0 12 4 9 8 -2 4 1 11 7 14 5 4
8 13 5 20 -3 8 -2 16 2 18 4 2 2 3 -4 1 -6 -1 -16 2 -21 7 -5 5 -12 7 -15 4z
m22 -35 c0 -5 -20 -10 -45 -10 -25 0 -45 5 -45 10 0 6 20 10 45 10 25 0 45 -4
45 -10z"/>
<path d="M2406 397 c3 -10 9 -15 12 -12 3 3 0 11 -7 18 -10 9 -11 8 -5 -6z"/>
<path d="M2626 397 c3 -10 9 -15 12 -12 3 3 0 11 -7 18 -10 9 -11 8 -5 -6z"/>
<path d="M1390 376 c0 -2 8 -10 18 -17 15 -13 16 -12 3 4 -13 16 -21 21 -21
13z"/>
<path d="M828 353 c7 -3 16 -2 19 1 4 3 -2 6 -13 5 -11 0 -14 -3 -6 -6z"/>
<path d="M1798 348 c5 -5 16 -8 23 -6 8 3 3 7 -10 11 -17 4 -21 3 -13 -5z"/>
<path d="M2278 353 c6 -2 18 -2 25 0 6 3 1 5 -13 5 -14 0 -19 -2 -12 -5z"/>
<path d="M746 331 c8 -8 43 -8 38 0 -2 4 -13 7 -24 6 -10 -1 -17 -3 -14 -6z"/>
<path d="M1067 293 c-4 -3 -184 -5 -401 -4 -385 2 -395 2 -405 -18 -15 -27
-14 -57 4 -74 12 -13 200 -15 1412 -14 1088 1 1401 4 1411 14 7 7 20 10 30 7
10 -4 13 -3 6 3 -18 14 -26 46 -11 40 8 -3 14 1 14 8 0 8 -7 11 -15 7 -9 -3
-13 -1 -9 5 10 16 -175 24 -486 21 -148 -2 -258 0 -245 4 15 5 13 6 -7 2 -53
-11 -1301 -14 -1285 -4 8 5 10 10 4 10 -6 0 -14 -3 -17 -7z m2023 -58 l0 -25
-1410 0 -1410 0 0 25 0 25 1410 0 1410 0 0 -25z"/>
<path d="M2998 173 c7 -3 16 -2 19 1 4 3 -2 6 -13 5 -11 0 -14 -3 -6 -6z"/>
</g>
</svg>
